<svg xmlns="http://www.w3.org/2000/svg" viewBox="0 0 398.97 398.97"><path d="M225.092 276.586c-7.1 4.355-16.195 6.754-25.607 6.754-9.412 0-18.506-2.398-25.607-6.754L57.946 205.484s-10.464-6.414-10.464 8.116v71c0 37.402 68.053 77.723 152 77.723s152-40.32 152-77.723v-75.003c0-11.663-7.44-5.964-7.44-5.964l-118.95 72.953z"/><path d="M392.29 148.927c8.907-5.463 8.907-14.403 0-19.867L215.68 40.745c-8.907-5.463-23.484-5.463-32.392 0L6.68 129.06c-8.907 5.463-8.907 14.403 0 19.867l176.61 108.315c8.908 5.463 23.485 5.463 32.393 0m169.302 52.233V189.85s.083-5.666-3.28-3.795c-2.696 1.5-9.307 5.186-11.636 7.212-2.69 2.337-2.085 7.583-2.085 7.583v108.625c0 1.542-1.325 2.278-1.957 2.65-6.106 3.59-10.21 10.214-10.21 17.81 0 11.413 9.25 20.666 20.666 20.666 11.414 0 20.666-9.25 20.666-20.665 0-7.624-4.135-14.27-10.28-17.85-.61-.356-1.887-1.068-1.887-2.61z"/></svg>