<svg xmlns="http://www.w3.org/2000/svg" viewBox="0 0 512 512"><path d="M354.217 445.092l-35.025-21.21-.173-.105-19.186-11.618V399.39a83.87 83.87 0 0 0 14.267-31.308 10.925 10.925 0 0 1 2.9-5.6 7.22 7.22 0 0 0 .26-.275 27.545 27.545 0 0 0 7.782-19.284v-18.083a27.858 27.858 0 0 0-2.892-12.342l-1.033-2.09A10.768 10.768 0 0 1 320 305.64v-26.008c.07-27.08-21.796-49.104-48.875-49.233h-30.25c-27.08.13-48.944 22.155-48.875 49.234v26.008c0 1.65-.38 3.278-1.108 4.758l-1.042 2.092a27.92 27.92 0 0 0-2.892 12.35v18.083a27.56 27.56 0 0 0 7.775 19.275c.083.1.175.192.267.283a10.925 10.925 0 0 1 2.9 5.6 83.755 83.755 0 0 0 14.267 31.308v12.768l-19.722 11.944c-.107.057-.2.124-.305.185L157.775 445.1a44.493 44.493 0 0 0-21.242 37.817v20.55a8.525 8.525 0 0 0 8.533 8.533h221.867a8.525 8.525 0 0 0 8.533-8.533v-20.55a44.502 44.502 0 0 0-21.25-37.825zM207.35 350.708c-.075-.092-.158-.175-.25-.267a10.78 10.78 0 0 1-3.075-7.516V324.84c0-1.65.38-3.277 1.108-4.757l1.05-2.108a27.988 27.988 0 0 0 2.884-12.333v-26.008c-.078-17.658 14.15-32.047 31.808-32.167h30.25c17.658.12 31.887 14.51 31.808 32.167v26.008a27.93 27.93 0 0 0 2.892 12.342l1.042 2.108a10.72 10.72 0 0 1 1.108 4.75v18.083a10.78 10.78 0 0 1-3.075 7.517l-.25.258a28.05 28.05 0 0 0-7.283 14.017 68.19 68.19 0 0 1-12.067 25.667 13.537 13.537 0 0 0-2.533 7.883v13.823l-27.226 12.273-26.306-12.218v-13.878a13.6 13.6 0 0 0-2.567-7.933 68.042 68.042 0 0 1-12.033-25.617 28.032 28.032 0 0 0-7.284-14.01zm56.82 103.023l-4.712 7.07h-7.933l-4.72-7.07 8.685-8.228 8.68 8.23zm-39.557 41.203H153.6v-12.017a27.328 27.328 0 0 1 13.025-23.225l29.217-17.693 16.817 13.21a26.298 26.298 0 0 0 16.207 5.6c.683 0 1.352-.12 2.03-.174l6.212 9.313-12.497 24.987zm10.412-53.55a7.5 7.5 0 0 1-3.15 1.775 9.047 9.047 0 0 1-8.667-1.358l-11.773-9.246 9.208-5.578L240.5 436.2l-5.475 5.183zm8.673 53.55l8.535-17.067h6.517l8.53 17.067H243.7zm47.632-67.975l8.65 5.24-12.23 9.61a9.297 9.297 0 0 1-9.1 1.193 6.656 6.656 0 0 1-2.7-1.616l-5.358-5.083 20.738-9.342zm67.07 67.975h-72.037l-12.49-24.987 6.24-9.36c.692.055 1.38.18 2.07.18a26.073 26.073 0 0 0 16.126-5.55l17.27-13.57 29.78 18.038a27.334 27.334 0 0 1 13.04 23.233v12.016zM256 187.733c51.84 0 93.867-42.026 93.867-93.867C349.807 42.05 307.817.06 256 0c-51.84 0-93.867 42.026-93.867 93.867 0 51.84 42.026 93.866 93.867 93.866zm0-170.666c42.415 0 76.8 34.385 76.8 76.8-.046 42.396-34.404 76.754-76.8 76.8-42.415 0-76.8-34.385-76.8-76.8 0-42.416 34.385-76.8 76.8-76.8zM187.733 221.867c0-51.84-42.026-93.867-93.867-93.867C42.05 128.06.06 170.05 0 221.867c0 51.84 42.026 93.867 93.867 93.867 51.84 0 93.866-42.026 93.866-93.867zm-93.866 76.8c-42.416 0-76.8-34.385-76.8-76.8.046-42.396 34.404-76.754 76.8-76.8 42.415 0 76.8 34.385 76.8 76.8s-34.385 76.8-76.8 76.8zM418.133 128c-51.84 0-93.867 42.026-93.867 93.867s42.026 93.867 93.867 93.867S512 273.708 512 221.867c-.06-51.817-42.05-93.808-93.867-93.867zm0 170.667c-42.415 0-76.8-34.385-76.8-76.8s34.385-76.8 76.8-76.8 76.8 34.385 76.8 76.8c-.046 42.396-34.403 76.753-76.8 76.8z"/><path d="M256 153.6c32.99 0 59.733-26.744 59.733-59.733-.04-32.973-26.76-59.693-59.733-59.733-32.99 0-59.733 26.744-59.733 59.733S223.01 153.6 256 153.6zm0-102.4c23.564 0 42.667 19.102 42.667 42.667-.028 23.553-19.114 42.64-42.667 42.667-23.564 0-42.667-19.102-42.667-42.667S232.436 51.2 256 51.2z"/><path d="M256 119.467c14.138 0 25.6-11.46 25.6-25.6-.015-14.132-11.468-25.585-25.6-25.6-14.138 0-25.6 11.46-25.6 25.6 0 14.138 11.462 25.6 25.6 25.6zm0-34.134a8.533 8.533 0 0 1 8.533 8.533A8.54 8.54 0 0 1 256 102.4a8.533 8.533 0 0 1 0-17.067zM93.867 213.333a8.533 8.533 0 0 1 0-17.066h17.067c4.713 0 8.533-3.82 8.533-8.533s-3.82-8.533-8.533-8.533H102.4v-8.532a8.533 8.533 0 0 0-17.066 0v10.106c-11.753 4.132-18.808 16.14-16.697 28.418s12.773 21.24 25.23 21.21c4.714 0 8.534 3.82 8.534 8.532s-3.82 8.533-8.532 8.533H76.8c-4.713 0-8.533 3.82-8.533 8.533s3.82 8.533 8.533 8.533h8.533v8.533a8.533 8.533 0 0 0 17.066 0V262.96c11.752-4.132 18.807-16.14 16.696-28.418s-12.772-21.24-25.23-21.21zM468.758 193.415c-.07-.2-.098-.412-.184-.605-.024-.052-.024-.11-.05-.16a8.432 8.432 0 0 0-1.56-2.23c-.176-.185-.38-.32-.572-.488a8.82 8.82 0 0 0-5.592-2.2h-17.067a8.536 8.536 0 0 0-1.09 17l-24.16 28.984-19.124-25.5a8.87 8.87 0 0 0-7.06-3.417 8.538 8.538 0 0 0-6.866 3.8l-17.067 25.6a8.534 8.534 0 1 0 14.2 9.466L392.94 228.1l18.368 24.482c1.564 2.09 4 3.35 6.61 3.417h.216a8.563 8.563 0 0 0 6.558-3.068l29.133-34.96a8.38 8.38 0 0 0 6.975 3.894 8.525 8.525 0 0 0 8.533-8.533v-17.067c0-.156-.08-.285-.09-.44a8.297 8.297 0 0 0-.485-2.41z"/></svg>