<svg xmlns="http://www.w3.org/2000/svg" viewBox="0 0 295.238 295.238"><path d="M277.462.09l-27.68 20.72-27.84 64.905h-22.385l-8.79-19.048h5.743c10.505 0 19.048-8.452 19.048-18.957V28.57h9.524V0H196.51v28.57h9.524v19.14c0 5.248-4.27 9.433-9.524 9.433h-10.138L174.2 30.81l14.58-7.267L141.04 3.095l-11.224 39.28c-.305-23.37-19.386-42.29-42.83-42.29C63.353.086 44.13 19.31 44.13 42.944c0 14.28 7.233 27.676 19.048 35.595v7.176H51.643L50.9 89.62c-2.314 12.004-2.53 24.342-.638 36.647l-32.486 57.905 35.876 8.195v60.014h47.62v42.858h114.285V228.88c33.333-23.58 52.37-61.494 52.343-101.942l.01-17.37c0-6.55-.605-13.277-1.824-19.906l-.705-3.948h-9.347l21.43-51.338V.09zm-71.43 19.048V9.614h9.525v9.524h-9.524zm-16.965 66.576h-18.062l-8.657-19.048h17.93l8.79 19.048zM147.22 16.12l18.928 8.11-4.467 2.19 14.2 30.723h-17.86l-11.606-25.47-4.262 2.15 5.067-17.704zm13.323 69.595h-21.176v-9.433c0-5.252 4.27-9.614 9.524-9.614h2.996l8.657 19.047zm-18.7-41.063l5.776 12.71c-9.906.667-17.777 8.848-17.777 18.92v9.432h-19.048v-7.176c9.53-6.386 15.995-16.352 18.176-27.452l12.873-6.434zm-88.19-1.704c0-18.376 14.957-33.333 33.333-33.333 18.376 0 33.333 14.957 33.333 33.333 0 11.83-6.39 22.88-16.672 28.838l-2.376 1.37v12.558h-9.524V56.352c5.53-1.97 9.524-7.21 9.524-13.41 0-7.876-6.41-14.286-14.286-14.286-7.876 0-14.286 6.41-14.286 14.287 0 6.2 3.995 11.438 9.524 13.41v29.362H72.7V73.157l-2.376-1.376c-10.28-5.956-16.67-17.004-16.67-28.832zm33.333 4.762a4.767 4.767 0 0 1-4.762-4.762 4.763 4.763 0 0 1 4.762-4.762c2.63 0 4.762 2.133 4.762 4.762s-2.133 4.762-4.762 4.762zm170.38 47.53c.69 4.76 1.04 9.59 1.04 14.284l.01 17.405c.028 38.147-18.796 73.87-50.287 95.55l-2.096 1.43v61.805h-95.238v-42.857h-47.62v-58.086l-30.862-7.043 27.876-49.7-.27-1.7c-1.772-10.42-1.872-21.568-.334-31.09H257.366zm-11.652-9.526H232.3l23.738-55.343 10.557 5.258-20.88 50.086zm22.224-60l-5.267-2.633 5.268-3.942v6.576z"/><path d="M96.51 123.81c-7.876 0-14.286-4.762-14.286-14.286H72.7c0 14.286 10.68 23.81 23.81 23.81 13.13 0 23.81-9.524 23.81-23.81h-9.524c0 9.524-6.41 14.286-14.286 14.286z"/></svg>