<svg xmlns="http://www.w3.org/2000/svg" viewBox="0 0 480 480"><path d="M472 144h-24v-12c0-15.464-12.536-28-28-28-4.16.023-8.26.983-12 2.808V96c0-17.673-14.327-32-32-32-17.673 0-32 14.327-32 32v48h-32v-8c.058-13.197-10.593-23.943-23.79-24.002A23.89 23.89 0 0 0 272 118.24c-9.044-8.32-22.956-8.32-32 0-9.044-8.32-22.956-8.32-32 0-9.75-8.894-24.864-8.2-33.758 1.55A23.9 23.9 0 0 0 168 136v8h-32V96c0-17.673-14.327-32-32-32-17.673 0-32 14.327-32 32v10.808A27.706 27.706 0 0 0 60 104c-15.464 0-28 12.536-28 28v12H8a8 8 0 0 0-8 8v48a8 8 0 0 0 8 8h24v12c0 15.464 12.536 28 28 28 4.16-.023 8.26-.983 12-2.808V256c0 17.673 14.327 32 32 32 17.673 0 32-14.327 32-32v-48h16v26.744a39.745 39.745 0 0 0 11.72 28.28L184 283.312V416h16V280a8 8 0 0 0-2.344-5.656l-22.624-22.632A24.133 24.133 0 0 1 168 234.744V184h46.856a9.6 9.6 0 0 1 7.744 3.752c.056.08.12.16.176.248.343.546.612 1.135.8 1.752.15.493.253 1 .304 1.512.056.502.056 1.01 0 1.512-.018.27-.053.536-.104.8a8.37 8.37 0 0 1-.92 2.4A7.903 7.903 0 0 1 216 200h-24a8 8 0 0 0-8 8v16a8 8 0 0 0 5.472 7.592l17.6 5.88C221.36 242.216 232 263.84 232 280h16c0-22.008-13.696-50.336-35.832-57.712L200 218.232V216h16a23.864 23.864 0 0 0 17.6-8H304v29.336a24.138 24.138 0 0 1-4.8 14.4L281.6 275.2a7.998 7.998 0 0 0-1.6 4.8v136h16V282.664l16-21.328a40.226 40.226 0 0 0 8-24V208h24v48c0 17.673 14.327 32 32 32 17.673 0 32-14.327 32-32v-10.808A27.706 27.706 0 0 0 420 248c15.464 0 28-12.536 28-28v-12h24a8 8 0 0 0 8-8v-48a8 8 0 0 0-8-8zM32 192H16v-32h16v32zm40 28c0 6.627-5.373 12-12 12s-12-5.373-12-12v-88c0-6.627 5.373-12 12-12s12 5.373 12 12v88zm48 36c0 8.837-7.163 16-16 16s-16-7.163-16-16V96c0-8.837 7.163-16 16-16s16 7.163 16 16v160zm40-88a8 8 0 0 0-8 8v16h-16v-32h32c.01 1.512.16 3.02.456 4.504.088.472.24.904.352 1.36.184.712.32 1.448.56 2.136H160zm40-8a8 8 0 0 1-16 0v-24a8 8 0 0 1 16 0v24zm32 0a8 8 0 0 1-16 0v-24a8 8 0 0 1 16 0v24zm48-24a8 8 0 0 1 16 0v24a8 8 0 0 1-16 0v-24zm-32 0a8 8 0 0 1 16 0v24a8 8 0 0 1-16 0v-24zm96 56H240v-.224a23.85 23.85 0 0 0-.496-4.736c-.048-.216-.152-.416-.2-.64-.144-.584-.352-1.128-.536-1.696a23.215 23.215 0 0 0-1.224-2.992c-.232-.48-.344-1.024-.608-1.488.09-.062.18-.13.264-.2.368-.24.688-.528 1.04-.8.6-.448 1.232-.864 1.792-1.368.464.416 1 .744 1.496 1.12.496.376.984.8 1.52 1.136.755.466 1.535.89 2.336 1.272.544.264 1.056.576 1.6.8.934.358 1.89.655 2.864.888.504.136.976.328 1.496.432 3.077.63 6.25.63 9.328 0 .52-.104.992-.296 1.496-.432.973-.233 1.93-.53 2.864-.888.568-.232 1.08-.544 1.6-.8.804-.38 1.586-.806 2.344-1.272.528-.352 1.008-.752 1.512-1.136.504-.384 1.032-.704 1.496-1.12.464.416 1 .744 1.496 1.12.496.376.984.8 1.52 1.136.755.466 1.535.89 2.336 1.272.544.264 1.056.576 1.6.8.934.358 1.89.655 2.864.888.504.136.976.328 1.496.432 12.955 2.633 25.59-5.734 28.224-18.688.322-1.585.483-3.198.48-4.816h32v32zm48 64c0 8.837-7.163 16-16 16s-16-7.163-16-16V96c0-8.837 7.163-16 16-16s16 7.163 16 16v160zm40-36c0 6.627-5.373 12-12 12s-12-5.373-12-12v-88c0-6.627 5.373-12 12-12s12 5.373 12 12v88zm32-28h-16v-32h16v32z"/></svg>