<svg xmlns="http://www.w3.org/2000/svg" viewBox="0 0 512 512"><path d="M396.106 226.616c-11.707-19.847-20.858-40.162-27.203-60.382-6.05-19.286-15.494-36.818-27.596-51.373 15.882-9.215 29.947-19.15 34.59-22.5a10.2 10.2 0 0 0 .002-16.54c-9.422-6.798-57.606-40.704-81.124-40.704-10.66 0-20.526 3.434-28.575 9.238V10.2C266.2 4.566 261.633 0 256 0s-10.198 4.567-10.198 10.2v62.75c-21.54 2.152-42.005 11.11-59.706 26.252-19.64 16.802-34.51 39.98-42.998 67.033-6.345 20.22-15.498 40.537-27.202 60.382-17.675 29.965-27.018 64.79-27.018 100.712C88.878 429.155 163.848 512 256 512s167.123-82.844 167.123-184.67c0-35.922-9.343-70.75-27.017-100.714zM290.002 73.768h-21.864c4.148-10.67 14.52-18.253 26.637-18.253 10.343 0 36.492 14.8 57.22 28.578-20.72 13.776-46.862 28.573-57.22 28.573-12.21 0-22.65-7.7-26.735-18.5h21.962c5.632 0 10.2-4.566 10.2-10.198s-4.568-10.2-10.2-10.2zm-34 417.834c-80.905 0-146.726-73.692-146.726-164.272 0-32.278 8.364-63.52 24.188-90.35 12.495-21.185 22.285-42.933 29.096-64.637 13.785-43.934 46.882-74.53 84.138-78.945 4.36 22.567 24.254 39.666 48.075 39.666 7.516 0 17.552-3.47 28.036-8.403 11.755 13.1 20.907 29.445 26.63 47.683 6.81 21.704 16.6 43.453 29.095 64.637 15.824 26.83 24.188 58.07 24.188 90.35.002 90.58-65.818 164.272-146.722 164.272z"/><path d="M312.983 267.01c-15.342-20.04-35.578-31.076-56.983-31.076-21.404 0-41.64 11.036-56.984 31.076-14.203 18.552-22.35 42.942-22.35 66.912 0 23.93 8.2 45.66 23.086 61.187 14.61 15.24 34.588 23.633 56.248 23.633s41.636-8.393 56.247-23.634c14.888-15.53 23.087-37.26 23.087-61.188 0-23.97-8.146-48.36-22.35-66.912zM256 398.344c-34.148 0-58.934-27.093-58.934-64.422 0-40.607 28.09-77.59 58.935-77.59s58.936 36.983 58.936 77.59c0 37.33-24.785 64.422-58.935 64.422zM345.335 245.362c-3.402-4.49-9.8-5.368-14.29-1.963-4.487 3.403-5.366 9.8-1.962 14.29 14.9 19.645 23.106 44.77 23.106 70.747 0 5.632 4.566 10.2 10.198 10.2 5.632 0 10.2-4.568 10.2-10.2 0-30.402-9.678-59.904-27.253-83.075zM316.32 217.896c-7.546-5.03-15.614-9.093-23.973-12.073-5.302-1.89-11.14.875-13.03 6.184-1.892 5.304.876 11.14 6.182 13.03 6.785 2.42 13.35 5.728 19.51 9.833a10.15 10.15 0 0 0 5.646 1.713 10.19 10.19 0 0 0 8.496-4.544c3.123-4.69 1.855-11.02-2.83-14.144z"/></svg>