<svg xmlns="http://www.w3.org/2000/svg" viewBox="0 0 153.20195 153.71295" height="153.713" width="153.202"><path d="M22.48 153.603c.387-.06.962-.058 1.277.003.314.06-.004.11-.707.107-.702-.002-.96-.052-.57-.11zm107.056 0c.39-.06.964-.058 1.278.003.314.06-.004.11-.706.107-.703-.002-.96-.052-.572-.11zm-108.96-.247c.184-.074.404-.065.49.02.084.085-.067.145-.337.134-.298-.012-.36-.073-.155-.154zm111.656 0c.184-.074.404-.065.49.02.084.085-.067.145-.336.134-.298-.012-.358-.073-.154-.154zM7.067 146.44l-.88-.958.958.88c.527.485.958.916.958.96 0 .194-.216.01-1.036-.882zm138.754.064c.478-.492.926-.894.996-.894.07 0-.262.402-.74.894-.476.492-.923.894-.994.894-.07 0 .263-.402.74-.894zM.204 132.94c.012-.297.072-.357.154-.153.074.184.065.404-.02.49-.085.084-.145-.067-.134-.336zm152.537 0c.012-.297.073-.357.155-.153.073.184.064.404-.02.49-.085.084-.146-.067-.135-.336zM0 130.664c.002-.703.052-.96.11-.572.06.39.057.965-.003 1.28-.06.313-.11-.005-.107-.707zm153.05 0c0-.703.05-.96.11-.572.058.39.056.965-.005 1.28-.06.313-.108-.005-.106-.707zM39.082 76.943l-.063-47.844 19.61.06 19.61.063-19.482.067-19.482.067-.065 47.715-.064 47.714zM82.91 124.47c.6-.053 1.52-.052 2.044.003.523.054.03.1-1.093.098-1.123 0-1.55-.045-.95-.1zm5.106-.248c.318-.06.778-.06 1.022.005.244.064-.016.114-.578.11-.562-.002-.762-.054-.444-.115zm2.552-.244a.986.986 0 0 1 .64 0c.174.07.03.13-.32.13-.352 0-.496-.06-.32-.13zm1.79-.256a.986.986 0 0 1 .637 0c.176.07.032.13-.32.13-.35 0-.494-.06-.318-.13zm3.08-.516c.185-.074.405-.065.49.02.085.085-.066.146-.335.134-.298-.012-.358-.072-.154-.154zm1.278-.255c.185-.073.405-.064.49.02.085.086-.066.146-.335.135-.297-.012-.358-.073-.154-.154zm12.568-5.287c0-.053.2-.254.447-.447.406-.318.415-.31.097.096-.333.426-.543.56-.543.35zm2.555-2.33c.762-.774 1.444-1.406 1.515-1.406.07 0-.497.632-1.26 1.405-.764.773-1.446 1.405-1.516 1.405-.07 0 .496-.632 1.26-1.405zm3.065-3.96c.15-.282.33-.512.4-.512.072 0 .006.23-.144.512-.15.28-.33.51-.4.51s-.005-.23.145-.51zm-34.302-3.76a3.64 3.64 0 0 1 1.15 0c.316.062.058.112-.575.112-.632 0-.89-.05-.575-.11zm8.24-2.214c0-.054.202-.256.447-.448.406-.318.415-.31.097.096-.334.426-.544.56-.544.35zm29.168-2.97c0-.352.06-.496.13-.32.07.175.07.463 0 .638-.07.176-.13.032-.13-.32zm.286-2.3c0-.633.05-.892.11-.575.062.316.062.833 0 1.15-.06.316-.11.057-.11-.575zm-25.07-2.045c0-.35.06-.495.13-.32.07.177.07.464 0 .64s-.13.032-.13-.32zm.276-2.81c0-.492.052-.693.117-.447.063.246.063.648 0 .894-.066.246-.118.045-.118-.447zm24.784-1.022c0-.492.052-.693.117-.447.064.246.064.648 0 .894-.065.246-.117.045-.117-.447zm-25.06-1.79c0-.35.06-.494.13-.318s.07.463 0 .64c-.07.174-.13.03-.13-.32zm24.765-.403c.014-.298.074-.358.156-.155.073.185.064.405-.02.49-.085.085-.146-.066-.135-.335zm-27.627-5.408l-.88-.96.957.882c.527.484.958.915.958.958 0 .195-.216.01-1.035-.88zm-7.19-3.305c.186-.074.406-.065.49.02.086.085-.065.146-.334.134-.3-.01-.36-.07-.156-.153zm-2.056-.262c.318-.06.778-.058 1.022.006.244.065-.016.115-.58.112-.56-.003-.76-.055-.443-.117zm32.478-1.544c-.318-.404-.31-.413.096-.095.427.334.562.544.352.544-.053 0-.254-.203-.447-.45zm-2.02-2.298l-1.397-1.47 1.47 1.397c.807.767 1.468 1.428 1.468 1.468 0 .19-.244-.03-1.54-1.396zm-9.7-5.685c0-.14.114-.256.255-.256a.256.256 0 0 1 0 .51.256.256 0 0 1-.256-.253zm5.62-3.146c0-.043.374-.417.83-.83l.83-.75-.75.83c-.7.774-.91.948-.91.75zm2.044-2.06c0-.053.2-.254.447-.447.405-.318.414-.31.096.097-.334.425-.544.56-.544.35zm1.02-1.277c0-.053.203-.255.45-.447.404-.318.413-.31.095.096-.334.426-.544.56-.544.35zm-31.23-1.107c.317-.06.776-.058 1.02.006.245.064-.015.114-.577.11-.562-.002-.762-.054-.444-.116zm2.056-.25c.184-.073.405-.064.49.02.084.086-.067.147-.336.135-.298-.01-.358-.07-.154-.153zm5.67-2.763c.476-.492.923-.894.993-.894.07 0-.263.4-.74.893-.476.492-.924.895-.994.895-.07 0 .262-.403.74-.895zm26.847-3.343c.012-.297.073-.358.155-.154.073.185.064.405-.02.49-.086.085-.146-.066-.135-.336zm.256-1.277c.01-.298.07-.358.153-.154.074.183.065.403-.02.488-.085.085-.145-.066-.134-.335zm-24.756-.49c.005-.42.063-.563.127-.314.066.247.062.592-.008.765-.07.173-.123-.03-.118-.452zm25.08-3.705c0-1.194.043-1.683.097-1.086.055.598.055 1.575 0 2.172-.053.597-.097.11-.097-1.086zm-25.07.256c0-.492.052-.693.116-.447.065.246.065.648 0 .894-.064.247-.116.046-.116-.446zm24.745-4.237c.01-.298.07-.36.153-.155.074.185.065.405-.02.49-.085.085-.145-.066-.134-.335zM82.15 46.554c.185-.074.405-.065.49.02.085.085-.066.146-.335.134-.298-.012-.36-.072-.155-.154zm-1.277-.255c.184-.075.405-.066.49.02.084.084-.067.144-.336.133-.3-.012-.36-.073-.155-.154zm-13.03-.274c2.15-.042 5.6-.042 7.664 0 2.063.044.302.08-3.913.078-4.216 0-5.905-.035-3.753-.078zm40.535-8.304l-1.268-1.34 1.34 1.267c.74.696 1.343 1.3 1.343 1.34 0 .19-.237-.022-1.415-1.268zm-16.263-7.265c.184-.074.405-.065.49.02.085.085-.066.146-.336.135-.296-.013-.357-.073-.153-.155zm-1.533-.255c.184-.074.405-.065.49.02.085.085-.066.145-.336.134-.297-.012-.358-.073-.154-.154zm-1.927-.258c.248-.065.593-.06.766.01.173.07-.03.122-.452.117-.42-.004-.562-.062-.313-.126zm-2.177-.248a.986.986 0 0 1 .64 0c.174.07.03.13-.32.13-.352 0-.496-.06-.32-.13zm-3.577-.267a3.64 3.64 0 0 1 1.15 0c.316.06.057.11-.575.11-.633 0-.89-.05-.575-.11zM0 23.093c.002-.702.052-.96.11-.57.06.387.057.962-.003 1.276-.06.315-.11-.003-.107-.706zm153.05 0c0-.702.05-.96.11-.57.058.387.056.962-.005 1.276-.06.315-.108-.003-.106-.706zM.202 20.774c.012-.298.072-.36.154-.155.074.183.065.404-.02.49-.085.084-.145-.067-.134-.337zm152.537 0c.012-.298.073-.36.155-.155.073.183.064.404-.02.49-.085.084-.146-.067-.135-.337zM7.08 7.253c.478-.493.925-.895.996-.895.07 0-.263.4-.74.893-.476.492-.924.894-.994.894-.07 0 .262-.402.74-.894zm138.728-.065l-.88-.96.957.88c.892.82 1.076 1.037.88 1.037-.042 0-.473-.43-.957-.958zM20.575.306c.185-.073.405-.064.49.02.085.085-.066.146-.336.135-.298-.013-.36-.073-.155-.155zm111.657 0c.184-.073.404-.064.49.02.084.085-.067.146-.336.135-.298-.013-.358-.073-.154-.155zM22.48.043c.387-.06.962-.057 1.277.004.314.06-.004.108-.707.106-.702-.002-.96-.05-.57-.11zm107.056 0c.39-.06.964-.057 1.278.004.314.06-.004.108-.706.106-.703-.002-.96-.05-.572-.11z" fill="#747474"/><path d="M22.227 153.517c-10.687-1.052-19.395-8.94-21.705-19.665-.444-2.06-.467-4.848-.467-56.974 0-52.125.023-54.912.467-56.974 2.12-9.835 9.503-17.22 19.34-19.338C21.92.122 24.7.1 76.578.1c51.877 0 54.656.022 56.718.466 9.835 2.12 17.22 9.503 19.338 19.338.444 2.062.467 4.85.467 56.974 0 52.126-.023 54.913-.467 56.974-2.094 9.72-9.255 16.973-19.08 19.325-1.808.434-4.916.462-55.572.503-29.51.024-54.602-.05-55.757-.163zM87.694 124.4c17.318-1.42 26.866-7.6 29.943-19.385.795-3.044 1.086-9.008.6-12.326-.897-6.142-3.75-11.355-8.193-14.974-1.595-1.3-5.505-3.427-6.956-3.785-.968-.24-.883-.47.38-1.037 3.68-1.65 7.135-4.917 8.882-8.4 3.05-6.077 2.996-14.86-.128-21.47-3.624-7.664-11.19-11.694-25.012-13.32-2.68-.317-7.83-.422-25.77-.527l-22.42-.13v95.613l22.804-.004c12.646-.002 24.17-.116 25.87-.255zM64.06 95.406V82.962l9.26.12c7.164.09 9.65.207 10.966.516 6.1 1.43 9.168 5.375 9.152 11.776-.016 6.363-2.826 10.06-8.9 11.707-1.76.478-2.873.543-11.217.65l-9.26.12zm0-39.2v-9.99l8.112.004c8.648.005 10.002.15 12.512 1.328 1.524.716 3.122 2.29 3.843 3.786 1.293 2.682 1.27 7.064-.05 9.668-.715 1.413-2.59 3.226-3.93 3.8-2.398 1.026-3.582 1.15-12.12 1.275l-8.368.122v-9.992z" fill="#595959"/></svg>