<svg xmlns="http://www.w3.org/2000/svg" viewBox="0 0 78.906338 174.23963" height="174.24" width="78.906"><path d="M31.907 173.992c.423-.08 1.036-.078 1.36.007.326.084-.02.15-.77.147-.747-.004-1.013-.074-.59-.155zm14.46.006a2.794 2.794 0 0 1 1.19 0c.327.086.06.156-.596.156-.654 0-.922-.07-.594-.156zm-17.867-.33c.234-.096.617-.096.85 0 .235.093.043.17-.425.17-.468 0-.66-.077-.425-.17zm21.44 0c.233-.096.616-.096.85 0 .233.093.042.17-.426.17-.468 0-.66-.077-.425-.17zm-23.46-.35c.245-.097.54-.085.652.028.113.113-.088.194-.447.18-.396-.017-.477-.098-.206-.207zm25.862 0c.246-.097.54-.085.652.028.113.113-.088.194-.446.18-.397-.017-.477-.098-.206-.207zm8.113-3.17c.216-.28.464-.892.55-1.36l.156-.85.047.893c.026.494-.22 1.105-.55 1.362-.517.407-.543.4-.202-.043zm-42.68-2.38c0-.656.07-.924.155-.597.086.33.086.865 0 1.192-.086.328-.156.06-.156-.595zm43.576-4.255c.004-.936.07-1.278.148-.76.078.516.076 1.282-.005 1.7-.08.42-.145-.004-.142-.94zm-43.91-.34c.005-.75.074-1.015.156-.592.08.425.078 1.037-.007 1.362-.086.326-.153-.02-.15-.77zm-.346-4.594c0-.656.07-.924.155-.597.085.328.085.864 0 1.19-.086.33-.156.06-.156-.594zm44.597-1.192c.004-.936.07-1.28.148-.76.078.516.076 1.282-.004 1.7-.08.42-.145-.005-.143-.94zm-44.93-3.403c.004-.75.074-1.015.155-.592.082.424.08 1.036-.007 1.36-.085.327-.15-.02-.148-.768zm45.267-2.552c0-.843.066-1.187.147-.766.082.42.082 1.11 0 1.53-.08.422-.147.078-.147-.764zM16.42 149.22c.004-.748.074-1.014.155-.59.08.422.078 1.035-.007 1.36-.085.326-.152-.02-.148-.77zm45.952-3.743c.003-.935.07-1.278.147-.76.077.517.075 1.282-.006 1.7-.08.42-.145-.004-.142-.94zm-46.292-1.02c.004-.75.073-1.015.155-.592.08.423.078 1.036-.007 1.36-.085.326-.152-.02-.148-.77zm22.635-6.883c.612-.076 1.53-.074 2.042.003.51.078.01.14-1.112.138-1.123-.002-1.542-.066-.93-.14zm-6.468-.334c.424-.082 1.036-.08 1.36.007.327.085-.02.15-.768.148-.75-.004-1.016-.074-.593-.155zm12.757.006a2.794 2.794 0 0 1 1.19 0c.33.085.06.155-.594.155-.655 0-.923-.07-.596-.154zm-16.504-.33c.234-.096.617-.096.85 0 .235.093.043.17-.425.17-.468 0-.66-.077-.425-.17zm20.418 0c.234-.096.617-.096.85 0 .235.093.043.17-.425.17-.468 0-.66-.077-.425-.17zm-23.14-.342c.234-.094.616-.094.85 0 .234.095.043.172-.425.172-.468 0-.66-.077-.425-.172zm25.862 0c.234-.094.617-.094.85 0 .235.095.044.172-.424.172-.468 0-.66-.077-.426-.172zm-28.223-.347c.245-.098.54-.086.652.027.112.113-.09.193-.448.18-.396-.018-.477-.098-.205-.207zm30.967 0c.246-.098.54-.086.652.027.113.113-.088.193-.447.18-.397-.018-.478-.098-.206-.207zm-33.01-.34c.247-.1.54-.086.653.027.113.113-.088.193-.446.178-.396-.016-.476-.097-.205-.205zm35.052 0c.245-.1.54-.086.652.027.113.113-.088.193-.447.178-.395-.016-.476-.097-.204-.205zm-36.753-.34c.246-.1.54-.087.653.026.113.113-.088.194-.447.18-.397-.017-.478-.098-.207-.207zm15.803-.022c2.012-.06 5.304-.06 7.316 0 2.012.06.366.11-3.658.11s-5.67-.05-3.658-.11zm-17.504-.32c.246-.097.54-.085.652.028.113.113-.088.193-.446.18-.397-.018-.477-.098-.206-.207zm9.337 0a2.794 2.794 0 0 1 1.19 0c.327.085.06.155-.596.155-.655 0-.923-.07-.595-.156zm22.46 0a2.794 2.794 0 0 1 1.19 0c.327.085.06.155-.596.155-.655 0-.923-.07-.595-.156zm-24.992-.34c.246-.097.54-.085.652.028.113.113-.088.193-.446.178-.397-.015-.478-.096-.206-.204zm28.245 0c.245-.097.54-.085.652.028.113.113-.088.193-.447.178-.396-.015-.477-.096-.205-.204zm-30.287-.34c.246-.098.54-.086.652.027.113.114-.088.194-.446.18-.397-.017-.477-.098-.206-.206zm32.328 0c.246-.098.54-.086.653.027.113.114-.088.194-.447.18-.396-.017-.477-.098-.206-.206zm-34.03-.34c.246-.098.54-.086.653.027.113.113-.088.194-.447.18-.396-.017-.477-.098-.205-.207zm35.732 0c.246-.098.54-.086.652.027.113.113-.088.194-.446.18-.397-.017-.477-.098-.206-.207zm10.953-2.958c0-.07.267-.34.595-.596.54-.422.552-.41.128.13-.444.566-.724.747-.724.467zM8.9 127.952c0-.468.08-.66.173-.425.095.234.095.616 0 .85-.094.234-.172.043-.172-.425zm60.548-1.56c.016-.396.097-.477.205-.205.1.245.086.54-.027.652-.113.112-.193-.09-.178-.448zM8.574 125.06c.007-.562.083-.75.17-.42.086.332.08.79-.013 1.022-.093.23-.163-.04-.156-.602zm61.24-.85c0-.47.078-.66.172-.427.095.234.095.617 0 .85-.094.235-.17.044-.17-.424zm-61.58-2.213c.006-.562.083-.75.17-.42.085.332.08.79-.014 1.022-.093.23-.163-.042-.157-.603zm61.92-.85c0-.47.078-.66.173-.426.094.235.094.618 0 .85-.095.235-.172.044-.172-.424zm-62.26-2.213c.006-.56.082-.75.17-.42.085.332.08.792-.014 1.022-.093.23-.164-.04-.157-.602zm62.614-.68c.007-.562.083-.75.17-.42.086.332.08.79-.013 1.022-.093.23-.164-.04-.157-.602zM7.553 115.53c.007-.56.083-.75.17-.418.086.33.08.79-.013 1.02-.093.232-.164-.04-.157-.6zm63.283-.17c0-.467.077-.658.17-.424.096.234.096.616 0 .85-.093.234-.17.043-.17-.425zM49.62 114.11c.245-.1.54-.087.652.026.113.114-.088.194-.447.18-.396-.017-.477-.098-.205-.206zm-1.305-.627c-.236-.284-.364-.583-.284-.664.082-.08.335.153.563.52.494.79.33.877-.278.145zM7.213 112.13c.007-.56.083-.75.17-.42.085.332.08.792-.014 1.022-.094.23-.164-.04-.157-.602zm63.963.17c0-.468.077-.66.172-.425.094.234.094.617 0 .85-.095.235-.172.043-.172-.425zm.353-2.892c.006-.562.082-.75.168-.42.087.332.08.79-.012 1.022-.093.23-.164-.04-.157-.602zm-64.658-.68c.007-.562.084-.75.17-.42.086.33.08.79-.013 1.02-.094.232-.165-.04-.158-.6zm9.76-.766c-.433-.55-.417-.56.213-.097.374.275.744.543.822.596.078.052-.018.095-.213.095-.196 0-.566-.268-.823-.595zm-.61-1.305c.015-.396.096-.477.204-.206.1.245.087.54-.026.652-.113.113-.194-.088-.18-.447zm55.847-.312c.006-.56.082-.75.17-.42.085.332.08.792-.014 1.022-.093.23-.164-.04-.157-.602zM6.55 104.3c.005-.747.075-1.013.156-.59.082.423.08 1.036-.007 1.36-.086.326-.152-.02-.15-.77zm65.66-1.02c.006-.56.083-.75.17-.418.085.33.08.79-.014 1.02-.093.23-.163-.04-.156-.602zm-63.426.278c.246-.098.54-.086.652.027.113.113-.088.194-.446.18-.397-.017-.478-.098-.206-.207zm35.55-1.213c-.51-.66-.832-1.276-.665-1.276.082 0 .4.38.708.85.573.875.54 1.182-.045.425zm-29.53-1.617c.338-.374.69-.68.785-.68.093 0-.108.306-.447.68-.338.375-.692.68-.786.68-.093 0 .107-.305.446-.68zm45.456.142c.016-.396.097-.477.205-.206.1.246.086.54-.027.653-.113.113-.193-.088-.178-.447zm-34.03-.68c.016-.397.097-.478.205-.206.1.245.087.54-.026.652-.115.113-.195-.088-.18-.447zm43.7-.142c.34-.375.694-.68.787-.68.094 0-.107.305-.445.68-.34.374-.693.68-.787.68-.093 0 .107-.306.446-.68zm2.607 0c0-.468.077-.66.172-.426.093.234.093.617 0 .85-.096.235-.173.044-.173-.424zm-7.944-.233c.245-.098.54-.086.652.027.113.113-.088.194-.447.18-.396-.018-.477-.098-.205-.207zm-54.13-.333c.235-.094.618-.094.852 0 .234.094.042.172-.425.172-.468 0-.66-.078-.426-.172zm37.01-.11c-.118-.194.018-.25.32-.135.59.226.7.47.21.47-.177 0-.415-.15-.53-.336zm-38.292-.524c-.236-.285-.363-.584-.283-.665.08-.08.334.153.562.52.493.79.328.877-.28.145zm8.005-.162c.34-.374.693-.68.786-.68.095 0-.106.306-.445.68-.338.375-.692.68-.786.68-.094 0 .106-.305.445-.68zm22.375-.51c.004-.75.074-1.015.155-.592.082.424.08 1.036-.007 1.362-.085.325-.15-.02-.148-.77zm24.756.722c0-.07.268-.338.596-.595.54-.424.552-.412.128.128-.444.568-.724.748-.724.468zm-50.704-.68c0-.07.268-.34.595-.596.54-.423.552-.41.13.13-.446.565-.725.746-.725.466zm16.36-.41c.017-.397.098-.478.207-.206.097.245.085.54-.028.652-.113.113-.194-.088-.18-.447zm4.398-.313c.44-.468.876-.85.97-.85.093 0-.19.382-.63.85-.44.468-.875.85-.97.85-.093 0 .19-.382.63-.85zm-25.836-.368c.017-.397.097-.477.206-.206.098.247.086.54-.027.653-.113.113-.193-.088-.18-.446zm57.144.07c0-.07.268-.34.595-.596.54-.422.552-.41.13.13-.446.567-.725.747-.725.467zm-50.365-.32c0-.057.498-.555 1.106-1.105l1.105-1-1 1.107c-.93 1.03-1.212 1.26-1.212.998zm38.114-1.083c.44-.468.876-.85.97-.85.093 0-.19.382-.63.85-.44.468-.876.85-.97.85-.093 0 .19-.382.63-.85zm17.185.17c.34-.374.692-.68.786-.68.094 0-.107.306-.446.68-.34.374-.692.68-.786.68-.094 0 .107-.306.446-.68zm-7.657.212c0-.07.268-.34.596-.596.54-.423.552-.41.13.13-.445.566-.725.746-.725.466zm4.084-.68c0-.07.267-.34.594-.596.54-.424.552-.412.13.128-.446.567-.725.747-.725.467zM8.533 94.063c.017-.396.097-.477.206-.206.098.246.086.54-.027.653-.113.114-.193-.087-.18-.446zm55.782.41c0-.07.268-.338.596-.595.54-.424.552-.412.128.127-.444.567-.724.747-.724.467zm-46.62-.34c0-.07.267-.34.595-.595.54-.425.553-.413.13.127-.445.567-.725.747-.725.467zM73.53 90.32c.018-.396.098-.476.207-.205.098.246.086.54-.027.652-.113.113-.194-.087-.18-.446zM62.616 88.65c.44-.468.876-.85.97-.85.093 0-.19.382-.63.85-.44.468-.876.85-.97.85-.093 0 .19-.382.63-.85zm-2.102-.28c-.126-.622-.08-.846.134-.633.182.18.27.614.196.962-.1.467-.184.382-.33-.33zm-17.922-.23c0-.47.078-.66.173-.426.094.234.094.617 0 .85-.095.235-.172.043-.172-.425zm31.308-.34c0-.47.078-.66.172-.426.094.233.094.616 0 .85-.094.234-.172.043-.172-.425zm-49.03-.2c.017-.396.098-.477.206-.205.1.245.086.54-.027.652-.113.113-.193-.088-.178-.447zm44.85-.056c-.424-.54-.412-.552.128-.13.328.258.596.526.596.597 0 .28-.28.1-.724-.468zm-64.9-.426c0-.468.077-.66.172-.425.094.235.094.618 0 .852-.095.234-.172.042-.172-.426zm35.737-.205c.305-.304.717-.497.917-.43.2.07-.05.32-.555.556-.847.397-.875.388-.362-.125zm33.684-1.835c0-.468.076-.66.17-.426.095.233.095.616 0 .85-.094.234-.17.042-.17-.425zm-69.762-.68c0-.47.077-.66.17-.426.096.232.096.615 0 .85-.093.233-.17.042-.17-.426zm20.095.135c-.24-.262-.29-.476-.105-.476.353 0 .865.647.663.84-.064.06-.316-.102-.557-.364zm-1.864-.178c.23-.233.505-.337.61-.233.104.104-.085.294-.42.422-.485.185-.524.146-.19-.19zm51.87-2.34c0-.468.076-.66.17-.426.095.234.095.617 0 .85-.094.235-.17.044-.17-.424zm-70.443-.68c0-.47.078-.66.172-.426.093.234.093.617 0 .85-.095.235-.173.043-.173-.425zm70.795-2.213c.007-.562.083-.75.17-.42.086.33.08.79-.013 1.02-.094.232-.165-.04-.158-.6zM3.81 78.097c.007-.56.083-.75.17-.418.085.33.08.79-.014 1.02-.093.23-.163-.04-.156-.602zm11.503.382c0-.07.268-.338.596-.595.54-.423.55-.41.127.128-.444.567-.724.747-.724.467zM26 77.503l-.648-.766.766.648c.72.61.92.884.648.884-.064 0-.41-.346-.766-.767zm1.252.67c.078-.054.448-.322.823-.596.63-.462.645-.455.213.096-.257.328-.627.596-.822.596-.196 0-.292-.045-.214-.098zm-15.17-1.606c.337-.374.69-.68.785-.68.093 0-.107.306-.446.68-.338.374-.692.68-.785.68-.094 0 .107-.306.446-.68zm63.19-.51c.007-.562.083-.75.17-.42.086.332.08.79-.013 1.022-.094.23-.165-.042-.158-.603zM3.47 75.037c.006-.563.083-.75.17-.42.085.33.08.79-.014 1.02-.093.23-.164-.04-.157-.6zm20.49-.257l-.65-.765.766.648c.72.61.92.883.648.883-.064 0-.41-.344-.765-.766zm29.467-.497c0-.195.268-.565.595-.822.55-.43.558-.415.097.215-.276.374-.544.744-.597.822-.053.078-.096-.018-.096-.214zm22.186-1.29c.006-.56.083-.75.17-.418.085.33.08.79-.014 1.02-.094.23-.164-.04-.158-.6zm-60.3.383c0-.07.268-.34.596-.596.54-.423.55-.41.127.13-.444.566-.724.746-.724.466zm11.04-.978l-1-1.106 1.105 1c.608.55 1.106 1.047 1.106 1.106 0 .263-.28.03-1.212-1zm-23.237-.595c0-.468.078-.66.172-.425.094.233.094.616 0 .85-.094.234-.172.043-.172-.425zm16.898-1.253c.245-.1.54-.087.652.026.113.113-.088.194-.447.18-.397-.017-.478-.098-.206-.206zm55.94-.62c.006-.56.082-.75.168-.418.087.33.08.79-.012 1.02-.094.232-.164-.04-.157-.6zM2.788 68.57c.006-.56.082-.75.168-.42.086.332.08.792-.012 1.022-.094.23-.164-.04-.157-.602zm73.49-1.872c0-.467.078-.66.172-.425.095.234.095.617 0 .85-.094.235-.172.043-.172-.425zm-73.832-1.19c.007-.562.084-.75.17-.42.086.332.08.79-.013 1.02-.093.232-.164-.04-.157-.6zm74.185-2.042c.007-.562.084-.75.17-.42.086.332.08.79-.013 1.022-.093.23-.164-.04-.157-.602zm-74.537-1.19c0-.47.077-.66.17-.427.096.233.096.616 0 .85-.093.234-.17.042-.17-.425zm74.865-2.043c0-.468.078-.66.173-.426.094.234.094.617 0 .85-.095.235-.172.044-.172-.424zM1.77 59.043c.007-.563.083-.75.17-.42.086.33.08.79-.013 1.02-.094.23-.164-.04-.157-.6zM77.314 57c.007-.562.083-.75.17-.42.086.332.08.792-.013 1.022-.092.23-.163-.04-.156-.602zM1.428 55.64c.006-.563.083-.75.17-.42.085.33.08.79-.014 1.02-.093.23-.163-.04-.156-.6zm76.214-1.873c0-.468.077-.66.17-.425.096.234.096.617 0 .85-.093.234-.17.043-.17-.425zm-76.567-1.36c0-.47.077-.66.17-.426.096.234.096.617 0 .85-.093.235-.17.044-.17-.424zm76.92-1.873c.006-.56.083-.75.17-.42.085.332.08.792-.014 1.022-.092.23-.162-.04-.155-.602zm-50.346.258a72.715 72.715 0 0 1 5.274 0c1.45.064.264.116-2.637.116-2.902 0-4.088-.052-2.638-.116zm15.67 0a88.955 88.955 0 0 1 5.785 0c1.535.063.187.114-2.995.113-3.18 0-4.437-.05-2.79-.114zm-23.498-.322a2.794 2.794 0 0 1 1.19 0c.33.085.06.155-.594.155-.655 0-.923-.07-.596-.155zm37.263-.006a4.85 4.85 0 0 1 1.53 0c.422.08.078.148-.764.148s-1.186-.067-.765-.148zM16.59 50.14c.233-.096.616-.096.85 0 .234.093.043.17-.425.17-.468 0-.66-.077-.425-.17zm45.095-.012c.332-.086.79-.08 1.02.013.232.094-.04.165-.6.158-.562-.007-.75-.083-.42-.17zM.707 48.578c-.014-.89.096-1.617.246-1.617s.215.575.145 1.277c-.196 1.976-.36 2.12-.39.34zm13.16 1.22c.234-.094.617-.094.85 0 .235.095.043.172-.424.172-.468 0-.66-.077-.426-.172zm50.705 0c.234-.094.616-.094.85 0 .234.095.043.172-.425.172-.468 0-.66-.077-.425-.172zm-53.066-.347c.246-.097.54-.085.653.028.112.113-.09.193-.448.18-.397-.018-.477-.098-.206-.207zm24.84-.02c1.927-.06 4.99-.06 6.805 0 1.816.06.238.11-3.505.11-3.744 0-5.228-.05-3.3-.11zm30.608.028c.234-.094.616-.094.85 0 .234.095.043.172-.425.172-.47 0-.66-.077-.426-.172zm-57.83-.347c.246-.098.54-.085.652.028.114.113-.087.193-.446.178-.397-.016-.477-.097-.206-.205zm16.143-.01a7.517 7.517 0 0 1 1.872 0c.513.077.092.14-.937.14-1.03 0-1.45-.063-.936-.14zm26.884 0a7.517 7.517 0 0 1 1.872 0c.515.077.094.14-.936.14s-1.45-.063-.935-.14zm17.207.01c.246-.098.54-.085.652.028.112.113-.09.193-.447.178-.397-.016-.477-.097-.206-.205zm-61.934-.34c.245-.098.54-.086.652.027.113.113-.088.194-.447.18-.396-.017-.477-.098-.205-.207zm12.573-.008c.424-.08 1.036-.078 1.362.007.325.084-.02.15-.77.147-.75-.004-1.015-.073-.592-.155zm37.774 0c.423-.08 1.035-.078 1.36.007.326.084-.02.15-.77.147-.748-.004-1.014-.073-.59-.155zm13.63.008c.244-.098.538-.086.65.027.114.113-.087.194-.446.18-.396-.017-.477-.098-.205-.207zm-55.314-.343c.33-.086.79-.08 1.02.012.23.093-.04.163-.602.156-.56-.007-.75-.083-.418-.17zm45.6 0c.33-.086.79-.08 1.02.012.23.093-.04.163-.602.156-.56-.007-.75-.083-.42-.17zm-48.5-.33c.235-.094.617-.094.85 0 .235.094.044.172-.424.172-.468 0-.66-.08-.425-.173zm51.726 0c.234-.094.617-.094.85 0 .235.094.043.172-.425.172-.468 0-.66-.08-.425-.173zm-54.086-.347c.245-.1.54-.087.652.026.113.113-.088.194-.447.18-.395-.017-.476-.098-.204-.206zm56.83 0c.245-.1.54-.087.652.026.113.113-.088.194-.447.18-.395-.017-.476-.098-.204-.206zM78 47.437c-.24-.262-.29-.476-.105-.476.353 0 .865.648.663.84-.066.062-.317-.1-.558-.363zm-8.303-.028c.246-.1.54-.087.653.026.113.113-.088.194-.447.18-.397-.017-.477-.098-.206-.207zM0 44.007c0-.19.345-.636.766-.993l.765-.648-.676.85c-.372.47-.717.915-.765.993-.05.078-.09-.013-.09-.202zm77.885-1.045c-.423-.54-.41-.552.128-.13.328.258.596.526.596.597 0 .28-.28.1-.725-.467zm-70.462-2.36c.245-.098.54-.086.652.027.113.113-.088.194-.447.18-.396-.017-.477-.098-.205-.207zm2.042-.34c.245-.098.54-.086.652.027.113.113-.088.193-.447.18-.396-.018-.477-.098-.205-.207zm59.21 0c.247-.098.54-.086.654.027.112.113-.09.193-.448.18-.396-.018-.477-.098-.206-.207zm-57.19-.333c.234-.095.617-.095.85 0 .235.094.043.17-.425.17-.467 0-.66-.076-.425-.17zm55.15-.007c.245-.1.54-.087.652.027.113.113-.088.193-.447.178-.396-.016-.477-.097-.205-.205zm-52.25-.344c.33-.087.79-.082 1.02.012.23.093-.04.163-.602.157-.562-.008-.75-.085-.42-.17zm49.846.01c.235-.095.618-.095.852 0 .234.094.043.17-.425.17-.468 0-.66-.076-.426-.17zm-46.45-.35a2.794 2.794 0 0 1 1.192 0c.327.086.06.156-.596.156-.655 0-.923-.07-.595-.156zm43.218 0a2.794 2.794 0 0 1 1.19 0c.33.086.06.156-.594.156-.655 0-.923-.07-.596-.156zm-38.623-.346a4.85 4.85 0 0 1 1.53 0c.422.08.078.148-.765.148-.842 0-1.187-.067-.765-.148zm6.458-.346c.604-.075 1.676-.076 2.382-.002.706.073.212.135-1.1.136-1.31.002-1.886-.058-1.282-.134zm12.003-.32c3.68-.248 7.75-.264 7.605-.03-.086.14-2.178.228-4.647.194-2.47-.033-3.8-.107-2.957-.164zM61.764 22.46c1.3-1.31 2.44-2.382 2.534-2.382.094 0-.893 1.072-2.194 2.382-1.3 1.31-2.44 2.382-2.534 2.382-.093 0 .894-1.072 2.194-2.382zm-5.445-4.424c1.3-1.31 2.44-2.382 2.533-2.382.094 0-.893 1.072-2.193 2.382s-2.44 2.382-2.534 2.382c-.094 0 .893-1.072 2.193-2.382zm11.4-1.872c1.205-1.216 2.268-2.212 2.362-2.212.093 0-.817.996-2.022 2.212-1.206 1.217-2.27 2.212-2.363 2.212-.093 0 .817-.995 2.022-2.212zm-4.935-4.934c1.3-1.31 2.44-2.382 2.534-2.382.093 0-.895 1.072-2.195 2.382-1.3 1.31-2.44 2.382-2.534 2.382-.092 0 .895-1.072 2.195-2.382zm10.025-.426c1.41-1.502 1.715-1.772 1.715-1.517 0 .055-.727.782-1.616 1.617L71.29 12.42zm2.736-3.084c0-.058.498-.556 1.106-1.106l1.106-1-1 1.107c-.93 1.032-1.212 1.263-1.212 1zm-5.274-4.317C72.136 1.53 73.738 0 73.832 0c.093 0-1.356 1.53-3.22 3.403-1.865 1.872-3.467 3.403-3.56 3.403-.094 0 1.355-1.53 3.22-3.403zm8.245.653c.12-.46.275-.614.36-.36.082.246-.013.61-.21.807-.253.252-.298.12-.15-.447z" fill="#aeaeae"/><path d="M30.903 173.855c-5.705-.55-10.067-1.84-12.09-3.57-.72-.618-.796-1.25-1.757-14.503l-1.005-13.857-2.4-4.16c-1.322-2.287-2.355-4.206-2.297-4.264.058-.057 1.01.208 2.118.59 5.567 1.92 16.853 3.443 25.664 3.46 8.554.018 19.38-1.43 25.693-3.435 1.123-.357 2.097-.596 2.165-.53.068.063-.894 1.89-2.138 4.056l-2.262 3.94-.8 13.96c-.9 15.69-.66 14.66-3.74 16.102-4.73 2.213-16.883 3.204-27.15 2.213zm-4.04-38.75c-5.345-.667-12.24-2.344-15.7-3.817-1.202-.513-1.64-.903-1.78-1.583-.482-2.373-2.577-22.655-2.577-24.96 0-1.596.04-1.667.766-1.41 2.11.743 4.962-.408 8.465-3.416 1.192-1.023 2.206-1.82 2.256-1.77.05.048-.357 1.606-.9 3.46-1.484 5.054-1.523 5.356-.795 6.254.524.647.752.718 1.33.41.766-.412 1.473-2.186 3.342-8.397.675-2.245 1.84-5.948 2.59-8.226 1-3.044 1.334-4.578 1.257-5.784-.1-1.577-.15-1.646-1.206-1.75-1.244-.12-1.29-.046-3.142 4.89-1.79 4.77-7.196 10.36-10.018 10.36-1.85 0-2.542-2.663-1.725-6.635 1.378-6.69 6.397-15.417 10.29-17.886 2.603-1.65 3.723-1.35 5.89 1.584 1.53 2.07 2.522 2.336 3.252.867.806-1.623-.9-4.608-3.477-6.082-3.076-1.76-6.717-.667-10.747 3.224-3.333 3.217-5.914 7.356-8.414 13.49-.22.538-.46.92-.53.85-.258-.26-4.27-37.89-4.27-40.06 0-1.39.055-1.48.767-1.272 9.055 2.636 18.686 3.588 36.326 3.592 18.165.003 28.92-.846 36.698-2.898 1.75-.46 3.26-.84 3.358-.84.2 0 .222-.22-1.633 17.186-1.824 17.11-3 26.98-3.39 28.465-.327 1.236-2.768 3.532-6.24 5.867-1.26.85-2.604 1.18-2.576.635.007-.14 1.004-1.48 2.217-2.978 2.648-3.27 3.895-5.635 3.895-7.388 0-1.1-.17-1.402-1.106-1.973-2.025-1.235-4.066-.74-6.833 1.655-.897.776-1.705 1.41-1.796 1.41-.09 0-.067-.522.053-1.16.18-.96.094-1.23-.495-1.544-1.358-.727-2.515.667-3.77 4.54-.497 1.53-2.95 4.022-5.935 6.026-2.24 1.504-3.14 1.592-2.997.292.12-1.115 2.26-6.782 5.777-15.3 1.584-3.836 2.957-7.518 3.05-8.18.147-1.043.053-1.26-.698-1.602-.715-.326-.984-.293-1.533.185-.71.617-3.668 7.417-7.36 16.914-3.203 8.232-3.045 7.94-4.69 8.687-2.114.96-2.295.89-2.295-.874 0-1 .546-3.006 1.55-5.688.94-2.516 1.475-4.44 1.36-4.9-.198-.788-1.287-1.34-1.9-.963-.194.12-1.25 2.083-2.347 4.36-2.15 4.47-4.215 7.17-6.08 7.948-2.648 1.107-2.73-1.118-.25-6.712 1.702-3.84 1.924-5.265.874-5.598-.367-.117-.958-.057-1.312.132-.787.422-2.75 4.124-3.91 7.38-1.995 5.587-1.823 8.272.57 8.933 2.19.604 4.595-.333 6.936-2.7l1.446-1.463v1.353c0 2.89 1.898 3.64 5.102 2.016l1.676-.848.85.85c1.568 1.568 3.927 1.112 7.43-1.437.89-.646 1.617-1.082 1.617-.967 0 .115-.75 1.85-1.664 3.857-2.126 4.66-3.292 7.49-3.57 8.658-.176.744-.054 1.033.62 1.475 1.845 1.21 2.658.182 5.4-6.824 4.493-11.474 7.536-15.94 11.388-16.71 1.796-.36 1.4.72-1.823 4.968-1.606 2.118-3.065 4.23-3.24 4.693-1.097 2.883 2.81 4.26 6.455 2.277.907-.493 2.474-1.574 3.483-2.402 1.008-.827 1.956-1.504 2.107-1.504.15 0 .19.498.09 1.106-.1.608-.803 6.695-1.565 13.527-1.52 13.634-2.06 16.87-2.96 17.733-.87.835-5.33 2.226-10.977 3.423-4.876 1.034-5.07 1.047-16.504 1.147-6.364.056-12.575-.024-13.803-.177zm-3.553-86.13C9.773 48.084.026 45.95.41 43.956c.578-3 13.924-4.95 36.95-5.397 6.044-.118 11.07-.343 11.166-.5.098-.16 1.08-3.816 2.182-8.127l2.004-7.838 9.34-9.77C74.355-.548 73.87-.093 75.018.194c1.27.32 3.59 2.583 3.59 3.503 0 .824-2.698 3.886-12.845 14.573-3.603 3.796-6.55 6.986-6.55 7.09 0 .103-.69 2.898-1.532 6.21-.842 3.313-1.53 6.348-1.53 6.744 0 .674.233.735 3.63.955 4.4.283 12.386 1.608 15.455 2.563 2.562.797 3.718 1.78 3.157 2.68-.932 1.5-7.347 3-17.138 4.004-6.288.646-30.607.938-37.944.457z" fill="#010101"/></svg>