<svg xmlns="http://www.w3.org/2000/svg" viewBox="0 0 16.630879 17.289885" height="65.348" width="62.857"><path d="M9.915 16.143a.455.455 0 0 1 .195 0c.053.014.01.026-.098.026-.106 0-.15-.013-.097-.027zm.708-.628l-.527-.034.51-.01c.292-.006.525.014.544.045.02.03.027.05.018.045a8.384 8.384 0 0 0-.545-.045zm-7.545-.698c.003-.065.016-.078.034-.034.016.04.014.088-.005.107-.018.018-.03-.015-.03-.073zm3.608 0c.003-.065.016-.078.034-.034.016.04.014.088-.005.107-.018.018-.03-.015-.03-.073zm-4.44-.278c.002-.065.015-.078.033-.034.015.04.013.088-.005.106-.02.02-.032-.014-.03-.073zm9.165-.385c.002-.09.015-.122.03-.068a.318.318 0 0 1-.003.167c-.016.037-.027-.007-.026-.1zm-9.988-.18c.115-.01.302-.01.417 0 .113.013.02.023-.21.023-.228 0-.322-.01-.208-.022zm6.745-.61c.1-.01.26-.01.36 0 .1.013.02.023-.18.023-.198 0-.28-.01-.18-.022zm.014-2.248c-3.212-.3-5.995-3.433-5.807-6.537.04-.668.156-1.132.424-1.693.205-.43.733-1.194.825-1.194.025 0 .008.182-.038.403-.12.577-.116 2.107.006 2.636.25 1.09.732 1.935 1.59 2.795a8.537 8.537 0 0 0 2.233 1.6c2.058 1.004 4.735.713 6.25-.68.13-.12.235-.193.235-.162 0 .133-.602.962-.943 1.297-.897.883-2.015 1.403-3.322 1.547-.574.062-.65.062-1.452-.013zm1.36-3.794c-1.678-.37-3.18-1.82-3.585-3.465-.044-.175-.075-.588-.073-.97.002-.57.023-.725.144-1.066.127-.355.637-1.22.69-1.17.01.012-.005.17-.035.35a5.76 5.76 0 0 0 .025 1.703c.262 1.37 1.17 2.44 2.727 3.223.727.365 1.124.456 1.968.454.662-.002.802-.02 1.198-.152.512-.17 1.04-.49 1.432-.864l.27-.26-.175.338c-.462.883-1.31 1.54-2.364 1.83-.48.13-1.72.16-2.22.05zm1.583-3.27c-.876-.2-1.59-.77-1.997-1.597-.26-.528-.355-.952-.303-1.345.05-.373.214-.796.388-1 .08-.09.13-.134.11-.097C9.3.05 9.286.29 9.286.54c.002.906.308 1.533 1.062 2.177.88.752 1.973.98 2.96.622.203-.074.368-.116.368-.093 0 .1-.587.577-.87.707-.393.18-1.134.223-1.683.098z" fill="#5c5c5c"/><path d="M.007 17.257c-.016-.027-.002-.18.03-.34.06-.284.07-.295.275-.328.187-.03.23-.07.347-.298.073-.145.185-.535.25-.867.064-.332.153-.735.198-.895l.082-.29h.76l-.105.484c-.258 1.173-.46 1.944-.555 2.136a.792.792 0 0 1-.285.3c-.195.102-.95.175-.998.097zm2.95-1.184c-.586-.178-.83-.823-.642-1.705.24-1.125.904-1.752 1.866-1.76.495-.006.772.08 1.044.318.455.4.513.92.21 1.86-.108.33-.195.618-.195.638 0 .02.074.036.165.036.19 0 .19.002.102.384l-.065.282-1.17-.005c-.644 0-1.235-.023-1.314-.047zm1.557-.82c.032-.116.125-.472.207-.792.146-.568.147-.587.052-.786-.22-.465-.96-.506-1.3-.073-.144.183-.317.718-.37 1.14-.033.264-.02.325.086.46.168.216.285.252.813.256l.456.004.058-.208zm1.745.785c-.235-.116-.33-.315-.32-.684.005-.29.18-1.33.303-1.795l.055-.21h.33c.32 0 .33.006.33.143 0 .08-.062.42-.14.757-.082.357-.134.733-.125.898l.017.284h.832l.22-1.013.22-1.014h.355c.32 0 .353.01.33.104-.016.057-.148.67-.294 1.36l-.265 1.256H7.27c-.64-.002-.88-.023-1.01-.088zm2.837.01a.96.96 0 0 1-.278-.198c-.254-.285-.015-1.647.362-2.077.318-.363 1.083-.565 1.604-.424.14.037.326.145.43.25.168.167.184.213.184.52 0 .184-.027.46-.06.616l-.06.28h-.91c-.91 0-.913 0-.912.125 0 .07.024.162.052.205.06.095.51.16 1.155.166.282.004.458.028.458.064 0 .032-.028.17-.062.305l-.062.246-.867-.002c-.594-.002-.92-.025-1.033-.076zm1.557-1.704c.02-.033-.01-.127-.07-.208-.088-.116-.165-.15-.37-.164-.225-.015-.28.005-.425.148-.092.09-.166.193-.166.225 0 .082.98.08 1.03 0zm.857 1.73c0-.028.126-.64.28-1.358.15-.72.276-1.32.276-1.336 0-.042 1.672-.037 1.884.006.197.04.317.186.37.452l.035.176-.85.015-.85.014-.225 1.04-.224 1.042h-.347c-.192 0-.35-.023-.35-.052zm2.307-.045c.11-.256.087-.768-.054-1.232a5.994 5.994 0 0 1-.142-.516c0-.027.18-.04.4-.032.4.016.402.017.453.197.03.1.07.18.09.18.02 0 .294-.374.608-.832l.573-.833h.888l-.097.153c-.15.233-.535.756-1.05 1.42-.4.517-.777 1.154-.884 1.494-.027.08-.1.096-.43.096-.355 0-.39-.01-.353-.097zm-12.55-2.214c.02-.08.05-.217.068-.305.03-.157.037-.16.413-.16.21 0 .382.012.382.026 0 .013-.027.15-.06.305l-.06.28h-.78z" fill="#181818"/></svg>