<svg xmlns="http://www.w3.org/2000/svg" viewBox="0 0 160.69581 61.314766" height="61.315" width="160.696"><path d="M17.27 61.07l1.573-.123v-2.775c0-2.364-.086-2.797-.58-2.926-.436-.114-.395-.16.166-.19.723-.037.745.055.745 3.11v3.15l-1.74-.06-1.74-.06zm124.866-2.904c0-3.055.022-3.147.745-3.11.563.03.604.076.167.19-.494.13-.58.562-.58 2.926v2.775l1.574.124 1.576.125-1.74.06-1.74.06zM13.81 60.756c.24-.095.525-.083.635.027.11.11-.086.19-.435.174-.386-.016-.465-.094-.2-.2zm133.235 0c.24-.095.525-.083.635.027.11.11-.085.19-.435.174-.386-.016-.464-.094-.2-.2zM7.377 57.92l-.63-.746.745.63c.7.595.896.86.63.86-.062 0-.397-.334-.745-.744zm7.464-4.143l-.802-.912.994.83c.547.455 1.056.865 1.132.91.076.046-.01.083-.19.083s-.69-.41-1.133-.91zm-9.865-1.41c0-.455.076-.64.168-.413.092.228.092.6 0 .828-.092.228-.168.042-.168-.414zm150.444.14c.015-.387.094-.465.2-.2.095.238.083.524-.027.634-.11.11-.188-.086-.174-.436zM13.616 50.377c0-.638.068-.9.152-.58.082.32.082.84 0 1.16-.085.32-.153.058-.153-.58zm133.848.47c.016-.387.094-.466.2-.2.096.238.084.524-.026.634-.11.11-.19-.086-.175-.435zM32.7 50.813c.24-.096.526-.084.636.026.11.11-.085.19-.435.174-.385-.016-.463-.094-.2-.2zm3.792-.002c.32-.083.84-.083 1.16 0 .32.083.058.152-.58.152s-.9-.07-.58-.152zm23.538 0c.322-.085.77-.08.994.01.225.092-.04.16-.586.154-.547-.007-.73-.08-.408-.165zm5.296 0c.32-.083.84-.083 1.16 0 .32.083.058.152-.58.152s-.9-.07-.58-.152zm23.864 0c.32-.083.84-.083 1.16 0 .32.083.058.152-.58.152s-.9-.07-.58-.152zm4.81-.006c.41-.08 1.008-.076 1.325.007.317.083-.02.148-.75.144-.73-.004-.988-.072-.576-.15zm25.188 0c.412-.08 1.01-.076 1.326.007.317.083-.02.148-.75.144-.73-.004-.988-.072-.576-.15zm4.64 0c.412-.08 1.01-.076 1.326.007.317.083-.02.148-.75.144-.73-.004-.988-.072-.576-.15zm-37.103-.323c.24-.096.525-.084.635.026.11.11-.086.187-.435.173-.386-.016-.465-.095-.2-.2zm10.274 0c.238-.096.524-.084.634.026.11.11-.085.187-.435.173-.387-.016-.466-.095-.2-.2zm19.553 0c.24-.096.525-.084.636.026.11.11-.087.187-.436.173-.387-.016-.465-.095-.2-.2zm10.275 0c.24-.096.525-.084.635.026.11.11-.086.187-.435.173-.386-.016-.465-.095-.2-.2zm-41.76-.332c.24-.095.524-.083.635.027.11.11-.086.19-.435.174-.387-.015-.465-.093-.2-.2zm-42.424-3.72c.093-3.264.044-3.634-.498-3.774-.476-.124-.446-.164.146-.194.732-.038.746.03.746 3.773 0 2.096-.112 3.81-.25 3.812-.136 0-.2-1.628-.144-3.618zm113.214-1.687c0-2.825.05-3.98.113-2.568a70.817 70.817 0 0 1 0 5.137c-.06 1.413-.112.257-.112-2.57zm-22.008 3.19c0-.07.26-.33.58-.58.526-.413.537-.4.125.125-.433.552-.705.727-.705.454zm-28.835-1.035c.428-.456.853-.83.944-.83.09 0-.185.374-.613.83-.428.455-.853.828-.944.828-.09 0 .184-.373.612-.828zm30.16-.29c0-.07.262-.33.58-.58.526-.414.538-.402.126.124-.432.552-.704.727-.704.455zm-71.01-3.1a10.55 10.55 0 0 1 2.156 0c.593.075.108.135-1.076.135-1.185 0-1.67-.06-1.078-.134zm26.853 0c.596-.073 1.49-.07 1.99.004.497.076.01.136-1.084.134-1.094-.002-1.5-.063-.906-.137zm30.16 0c.596-.073 1.49-.07 1.99.004.497.076.01.136-1.084.134-1.094-.002-1.5-.063-.905-.137zm-59.642-.317c.24-.095.525-.083.635.027.11.11-.085.19-.434.174-.386-.015-.465-.093-.2-.2zm33.474 0c.24-.095.525-.083.636.027.11.11-.086.19-.435.174-.386-.015-.464-.093-.2-.2zm-56.028-.338c.412-.08 1.008-.077 1.325.006.317.083-.02.148-.75.144-.728-.003-.988-.07-.575-.15zm86.914.104c0-.072.23-.22.514-.328.295-.113.428-.057.312.13-.195.315-.826.466-.826.198zm-100.6-21.58c0-11.847.042-16.646.093-10.663.05 5.983.05 15.677 0 21.543-.052 5.865-.093.97-.093-10.88zM96.73 42.63c0-.07.26-.33.58-.58.525-.413.537-.4.125.125-.433.552-.705.727-.705.454zm-60.363-.787c-.412-.525-.4-.537.125-.125.32.25.58.51.58.58 0 .273-.272.097-.705-.455zm71.326.055c.016-.386.094-.464.2-.2.096.24.084.525-.026.635-.11.11-.188-.085-.174-.435zm-9.943-.994c.016-.386.094-.464.2-.2.096.24.084.525-.026.635-.11.11-.188-.086-.174-.436zM4.656 40.27c.007-.548.08-.732.165-.41.085.323.08.77-.01.995-.092.225-.16-.04-.154-.586zm133.223-.498c0-.456.075-.642.167-.415.09.228.09.6 0 .83-.092.227-.168.04-.168-.415zm-124.645-.194c.016-.386.094-.464.2-.2.096.24.084.525-.026.635-.11.11-.19-.085-.175-.435zm134.587-.138c0-.455.076-.642.167-.414.09.228.09.6 0 .83-.092.226-.168.04-.168-.416zm-20.974-.248c-.413-.526-.4-.538.125-.125.552.433.727.705.455.705-.07 0-.33-.26-.58-.58zm-19.155-1.27c.016-.387.094-.465.2-.2.096.238.084.524-.026.634-.11.11-.188-.085-.174-.435zm-61.95-1.133c0-.457.074-.643.166-.415.09.227.09.6 0 .828-.093.228-.168.042-.168-.414zm-42.52-.25c-.412-.525-.4-.537.126-.125.318.25.58.51.58.58 0 .273-.273.097-.706-.455zM.02 32.397c-.06-2.884-.006-3.23.512-3.226.397.005.453.086.18.26-.25.16-.443 1.378-.512 3.227L.088 35.63zm160.344.11c0-2.053-.126-3.005-.414-3.122-.247-.1-.18-.177.166-.193.513-.023.58.335.58 3.123 0 1.73-.075 3.148-.166 3.148-.09 0-.166-1.33-.166-2.955zM10.692 34.056l-.632-.746.746.63c.7.594.897.86.63.86-.06 0-.397-.335-.744-.745zm125.104.165c-.412-.525-.4-.537.125-.125.32.25.58.51.58.58 0 .273-.27.097-.704-.455zm-30.315-.497l-.63-.746.745.632c.7.592.897.86.632.86-.063 0-.4-.337-.746-.747zm-21.37-.828l-.803-.912.91.804c.853.75 1.064 1.02.805 1.02-.06 0-.47-.41-.912-.912zm29.812 0c-.413-.526-.4-.538.125-.126.552.432.728.705.455.705-.07 0-.33-.26-.58-.58zm20.548 0c-.412-.526-.4-.538.126-.126.552.432.727.705.454.705-.068 0-.33-.26-.58-.58zM45.754 30.99c.007-.548.08-.732.165-.41.083.323.077.77-.013.995-.09.225-.16-.04-.153-.586zm104.642-.084l-.803-.91.91.802c.503.442.913.852.913.91 0 .26-.27.05-1.02-.802zm-139.673-.414c.33-.365.675-.663.766-.663.09 0-.105.297-.435.662-.33.364-.675.663-.766.663-.092 0 .103-.3.433-.663zm44.935-.912c.016-.346.094-.413.194-.165.125.31 1.66.414 6.083.414h5.916l.14-.913c.128-.848.14-.836.187.166l.05 1.077H61.93c-5.787 0-6.296-.047-6.272-.58zm-9.61-.607c.015-.386.093-.465.2-.2.095.24.083.524-.027.635-.11.11-.188-.086-.173-.435zm-44.44.063c0-.072.232-.22.515-.328.295-.113.428-.058.312.13-.195.315-.826.466-.826.198zm75.62-.533c0-.456.075-.642.167-.414.092.227.092.6 0 .827-.092.228-.168.042-.168-.414zm80.984.335c-.116-.188.017-.243.312-.13.574.22.68.458.203.458-.172 0-.403-.147-.515-.328zm-46.516-.998c0-.455.076-.642.167-.414.092.228.092.6 0 .83-.09.226-.167.04-.167-.416zM76.87 26.653c.016-.387.094-.465.2-.2.096.24.084.524-.026.635-.11.11-.19-.086-.174-.435zm14.888-.948c0-.444.122-.884.272-.976.15-.094.207.27.128.808-.174 1.184-.4 1.28-.4.167zm-33.806-.682c.62-.638 1.2-1.16 1.29-1.16.09 0-.34.522-.958 1.16-.62.638-1.2 1.16-1.29 1.16-.092 0 .34-.522.958-1.16zm-44.717-.028c.016-.386.094-.464.2-.2.096.24.084.525-.026.635-.11.11-.19-.085-.175-.435zm98.435 0c.016-.386.095-.464.2-.2.096.24.084.525-.026.635-.11.11-.188-.085-.174-.435zm36.165-.303c.006-.547.08-.73.165-.408.084.322.078.77-.013.994-.09.224-.16-.04-.152-.586zm-41.827-3.548c-.09-2.316-.047-4.093.096-3.95.142.144.216 2.04.164 4.21l-.096 3.95zM4.656 24.03c.007-.548.08-.732.165-.41.085.323.08.77-.01.995-.092.224-.16-.04-.154-.586zm117.262.702c0-.07.26-.33.58-.58.526-.412.538-.4.126.125-.433.552-.706.728-.706.455zm33.94-5.012c0-2.916.052-4.065.113-2.553.063 1.513.062 3.9 0 5.303-.062 1.404-.112.167-.11-2.75zm-26.047 3.585c.24-.096.526-.084.636.026.11.112-.086.19-.435.175-.385-.015-.464-.094-.2-.2zm-79.163-2.84c1.373-1.462 1.67-1.726 1.67-1.477 0 .053-.708.762-1.573 1.575L49.17 22.04zm32.494.62c0-.067.262-.328.58-.58.527-.41.538-.4.126.127-.433.552-.705.727-.705.454zm30.16-.31c0-.056.486-.54 1.078-1.076l1.077-.974-.973 1.077c-.907 1.004-1.18 1.23-1.18.973zM84.8 19.43c0-.07.26-.33.58-.58.526-.413.537-.4.125.124-.433.553-.705.728-.705.455zm-13.3-1.118c-.412-.526-.4-.538.126-.126.552.433.727.706.455.706-.07 0-.33-.26-.58-.58zm31.467-1.967c.24-.096.525-.084.635.026.11.11-.086.19-.435.175-.386-.016-.465-.094-.2-.2zm-44.412-.33c.24-.097.525-.085.635.025.11.11-.085.188-.435.174-.386-.016-.465-.094-.2-.2zm33.785.006c.228-.09.6-.09.83 0 .227.093.04.168-.416.168-.455 0-.642-.075-.414-.167zm8.617 0c.228-.09.6-.09.83 0 .227.093.04.168-.415.168-.456 0-.643-.075-.415-.167zm21.564-.006c.238-.096.524-.084.634.026.11.11-.085.188-.435.174-.387-.016-.465-.094-.2-.2zm8.616 0c.24-.096.525-.084.636.026.11.11-.086.188-.435.174-.387-.016-.465-.094-.2-.2zm-69.952-.345a10.55 10.55 0 0 1 2.154 0c.592.072.108.133-1.077.133-1.184 0-1.67-.06-1.076-.134zm34.634-.003a14.43 14.43 0 0 1 2.486 0c.683.072.124.13-1.243.13-1.366 0-1.925-.058-1.242-.13zm29.987.002c.59-.074 1.633-.075 2.32-.003.688.072.207.13-1.07.133-1.275 0-1.838-.057-1.25-.13zm-112.2-1.916c.007-.546.08-.73.165-.408.084.323.08.77-.012.995-.09.225-.16-.04-.153-.586zm133.886-.497c0-.455.076-.642.168-.414.092.228.092.6 0 .83-.092.226-.167.04-.167-.416zM4.95 12.07c.015-.386.094-.465.2-.2.095.24.084.524-.027.635-.11.11-.188-.086-.174-.435zm150.47-.332c.015-.386.094-.464.2-.2.095.24.083.525-.027.635-.11.11-.188-.085-.174-.435zM18.782 5.988l.106-2.962-1.267-.132-1.265-.13 1.408-.057 1.41-.056V5.8c0 1.732-.113 3.15-.25 3.15s-.2-1.333-.143-2.962zM142.136 5.8V2.65l1.408.057 1.41.056-1.267.13-1.266.133.107 2.962c.058 1.63-.006 2.962-.143 2.96-.136 0-.248-1.416-.248-3.148zm12.118 2.252c-.18-.473-.142-.51.186-.186.226.225.328.492.226.594-.102.102-.287-.082-.412-.408zM6.912 6.856c0-.057.484-.54 1.077-1.077l1.076-.974-.973 1.077c-.908 1.004-1.18 1.23-1.18.973zm5.572-3.437c.24-.096.525-.085.635.026.11.11-.086.188-.436.174-.386-.016-.464-.095-.2-.2zm1.657-.332c.24-.096.526-.084.636.026.11.11-.085.19-.435.174-.385-.016-.463-.094-.2-.2zm132.242 0c.24-.096.525-.084.635.026.11.11-.085.19-.435.174-.386-.016-.464-.094-.2-.2z" fill="#6d6d6d"/><path d="M13.298 60.634c-3.163-.624-5.863-2.347-6.954-4.437-1.01-1.937-1.17-3.117-1.388-10.294-.18-5.99-.323-7.483-.795-8.363-.606-1.132-2.062-2.077-3.198-2.077-.634 0-.68-.197-.68-2.976 0-2.972.002-2.977.913-3.2 1.43-.354 2.296-1.053 2.944-2.378.498-1.02.633-2.444.805-8.516.18-6.36.297-7.525.92-9.127.75-1.94 2.466-3.853 4.262-4.756 1.532-.77 4.958-1.517 6.99-1.522l1.752-.005-.097 2.887-.096 2.887-1.12.228c-.614.126-1.51.518-1.987.872-1.65 1.22-1.844 2.082-2.07 9.2-.114 3.646-.377 7.168-.584 7.826-.534 1.7-2.19 3.863-3.588 4.688l-1.194.705.784.517C12.73 35.306 13.54 37.6 13.54 45.87c0 6.982.575 8.41 3.68 9.156l1.623.39v5.566l-2.07-.036c-1.14-.02-2.704-.16-3.475-.313zm129.17-2.382v-2.824l1.573-.396c3.26-.82 3.497-1.426 3.762-9.626.168-5.2.355-7.17.798-8.398.56-1.556 2.503-3.95 3.446-4.248.316-.1-.075-.687-1.218-1.83-2.427-2.427-2.75-3.712-3.017-12.038-.13-4.067-.37-7.06-.596-7.458-.71-1.244-2.08-2.256-3.33-2.458l-1.25-.203-.098-2.945-.096-2.945 2.626.202c5 .386 7.815 2.024 9.445 5.496l1.03 2.192.184 7.457c.155 6.268.28 7.65.784 8.68.65 1.324 1.516 2.024 2.945 2.376.91.224.91.23.91 3.2 0 2.78-.044 2.977-.678 2.977-1.204 0-2.53.933-3.16 2.223-.518 1.058-.65 2.413-.83 8.55-.17 5.74-.34 7.635-.804 8.912-1.24 3.427-4.597 5.42-9.69 5.75l-2.733.18zM32.08 50.6c-.83-.23-2.024-.717-2.65-1.08-1.32-.764-3.126-3.286-3.616-5.05-.214-.77-.34-9.148-.34-22.844L25.472 0h9.943v20.068c0 22.355-.074 21.61 2.23 22.573.862.362 1.725.437 3.137.273l1.947-.226-.095 3.59-.095 3.59-1.714.38c-2.91.645-7.085.813-8.746.353zm27.527.137c-5.376-.752-9.448-3.337-11.592-7.358-3.912-7.34-2.614-17.645 2.88-22.875 3.8-3.614 6.98-4.764 12.506-4.52 3.913.173 6.308.965 8.744 2.89 3.47 2.744 5.015 6.557 5.28 13.025l.17 4.226H55.65l.204 1.077c.48 2.514 2.24 4.76 4.458 5.686 3.103 1.295 8.51.932 12.22-.823 1.128-.533 2.112-.97 2.187-.97.074 0 .135 1.646.135 3.658v3.658l-1.574.674c-3.362 1.442-9.697 2.207-13.673 1.65zm8.476-22.317c-.458-3.483-2.31-5.22-5.562-5.22-2.196 0-2.927.287-4.486 1.763-.923.874-2.402 3.877-2.402 4.878 0 .194 2.5.32 6.34.32h6.34zm20.692 22.273c-2.404-.29-4.772-.793-6.088-1.293l-.872-.332v-4.344c0-2.39.112-4.287.25-4.217 5.2 2.672 7.997 3.44 11.3 3.1 3.397-.347 4.955-1.505 4.495-3.34-.28-1.114-2.11-2.155-6.43-3.66-4.25-1.478-4.985-1.85-6.676-3.377-2.155-1.947-2.765-3.43-2.765-6.716 0-3.233.605-4.75 2.722-6.808 1.417-1.378 2.396-1.937 5.03-2.868 2.74-.97 9.526-1.155 13.285-.363l2.817.594.093 4.045.093 4.045-1.42-.62c-3.532-1.548-9.96-1.81-11.752-.477-2.356 1.75-.863 3.735 4.077 5.417 8.436 2.874 10.856 5.2 10.88 10.457.01 2.145-.136 2.937-.76 4.143-2.035 3.933-5.576 5.916-11.817 6.62-3.276.368-3.36.368-6.463-.007zm29.995.012c-2.515-.288-4.874-.78-6.254-1.305l-.872-.332V40.13l1.574.974c4.534 2.805 11.583 3.438 13.912 1.25 1.904-1.79.29-3.684-4.475-5.25-8.255-2.716-10.896-5.428-10.794-11.087.046-2.487.676-4.018 2.446-5.938 2.516-2.73 6.826-4.155 12.606-4.166 3.124-.005 6.07.366 8.18 1.032l1.078.34v3.987c0 3.67-.046 3.967-.58 3.743-3.45-1.45-4.06-1.588-7.54-1.72-3.062-.115-3.827-.04-4.778.463-1.336.708-1.78 1.696-1.242 2.757.633 1.25 1.88 1.954 6.198 3.495 7.613 2.717 9.907 5.308 9.52 10.754-.25 3.52-2.09 6.203-5.552 8.087-2.843 1.547-8.852 2.376-13.426 1.852z" fill="#434343"/></svg>