<svg xmlns="http://www.w3.org/2000/svg" xmlns:xlink="http://www.w3.org/1999/xlink" width="61" height="16" viewBox="0 0 61 16"><defs><path id="r8h8a" d="M396.6 606.92l-.03.42a3.2 3.2 0 0 1-.07.44l-1.22 5.41c-.08.33-.4.6-.72.65h-1.59c-.32-.03-.52-.31-.45-.64v-.01l.06-.28v-.01l-.64.43a4.15 4.15 0 0 1-1.5.67c-.25.07-.6.1-1.05.1-.72 0-1.32-.2-1.77-.62a2.12 2.12 0 0 1-.7-1.63c.01-.7.17-1.3.5-1.79.32-.49.8-.88 1.44-1.16a7.6 7.6 0 0 1 2.13-.6c.83-.13 1.52-.22 2.48-.27.16-.03.21-.1.24-.16.03-.07.03-.15.03-.24a.8.8 0 0 0-.51-.78 4.1 4.1 0 0 0-1.52-.22c-.46 0-1.04.09-1.58.22-.57.13-.72.21-1 .3-.14.04-.45.06-.33-.49l.2-.86s.1-.65.74-.8c.31-.06.37-.08.87-.15.68-.11 1.36-.17 2.03-.17 1.37 0 2.36.19 3 .55.64.36.96.93.96 1.7zm-3.66 4.4l.33-1.45c.05-.26-.02-.2-.11-.2-.1 0-.86.08-1.24.13-.43.06-.8.15-1.11.26-.3.12-.55.29-.72.5-.16.2-.24.48-.24.83 0 .3.11.52.33.64a2.31 2.31 0 0 0 1.83 0c.23-.1.45-.22.66-.35a.83.83 0 0 0 .27-.36zm-18.4-6.52h2c.6 0-.04.98-.04.98l-6.7 11.57c-.2.36-.69.65-1.05.65h-1.74c-.36 0-.47-.3-.26-.65l1.49-2.65s.12-.16.01-1.02a609.2 609.2 0 0 0-1.37-8.21c-.08-.36.15-.65.5-.65h1.5c.47 0 .84.3.93.67l.74 4.6c.02.09.15.23.28 0l2.65-4.63c.22-.36.7-.66 1.05-.66m-20.37.74c0-.46-.16-.8-.48-1.02a2.62 2.62 0 0 0-1.46-.34h-.55c-.37 0-.73.3-.8.66l-.51 2.23c-.08.36.15.65.51.65h.41c.9 0 1.6-.19 2.11-.56-.07.05-.44.33 0 0h.01c.51-.39.77-.93.76-1.62zm3.2-.27c0 1.4-.58 2.54-1.72 3.4-1.15.86-2.74 1.29-4.8 1.3h-.48c-.36 0-.72.29-.8.64l-.58 2.55a.86.86 0 0 1-.8.66h-1.68c-.36 0-.6-.3-.5-.66l2.36-10.5a.88.88 0 0 1 .8-.66h3.5c.77 0 1.43.06 2 .16.55.11 1.04.29 1.45.55.37.24.66.54.87.92-.04-.08-.08-.16 0 0l.05.1c.22.4.32.92.32 1.54zm26.55 1.93c.5-.39.76-.92.76-1.62 0-.46-.16-.8-.5-1.03a2.69 2.69 0 0 0-1.45-.33h-.55c-.36 0-.73.3-.8.65l-.5 2.23c-.1.36.14.66.5.66h.42c.9 0 1.62-.19 2.12-.56 0 0-.5.38 0 0zm3.6-3.5l.03.06c.21.41.31.93.32 1.54 0 1.41-.58 2.55-1.72 3.41-1.14.86-2.73 1.3-4.8 1.3h-.47c-.36-.01-.73.29-.8.64l-.58 2.55a.88.88 0 0 1-.8.65h-1.7c-.35 0-.58-.29-.5-.65l2.37-10.5a.88.88 0 0 1 .8-.66h3.51c.76 0 1.42.06 1.98.16s1.05.29 1.46.55c.38.25.69.56.9.95zm-21.42 3.22l-.03.41c-.02.17-.04.32-.07.44l-1.22 5.41a.89.89 0 0 1-.72.65h-.27l-1.29.01h-.03c-.33-.04-.52-.32-.45-.65v-.01l.06-.28v-.01l-.64.43a4.25 4.25 0 0 1-2.55.77c-.73 0-1.32-.2-1.78-.62a2.12 2.12 0 0 1-.68-1.62c0-.7.16-1.3.48-1.8.33-.49.8-.87 1.44-1.16.6-.28 1.32-.48 2.14-.6.83-.12 1.52-.21 2.48-.27.16-.02.21-.09.24-.16a.6.6 0 0 0 .02-.24.79.79 0 0 0-.5-.78 4.06 4.06 0 0 0-1.53-.22c-.46 0-1.03.1-1.57.22-.57.13-.72.21-1 .3-.14.04-.45.07-.33-.49l.2-.86s.1-.65.74-.8c.31-.06.36-.08.86-.15.69-.11 1.36-.17 2.04-.17 1.36 0 2.36.19 3 .55.64.37.96.93.96 1.7zm-3.67 4.4l.34-1.46c.04-.26-.02-.2-.12-.2-.1 0-.85.09-1.23.13-.43.07-.8.15-1.11.26-.3.12-.55.29-.72.5-.16.2-.24.48-.24.83 0 .3.1.52.33.64a2.33 2.33 0 0 0 1.83 0c.23-.1.45-.22.66-.35a.82.82 0 0 0 .26-.36zm39.53-8.54l-2.26 10.41v.03a.87.87 0 0 1-.8.63h-1.56l-.46-.66.09-.39 2.09-9.66.07-.36.01-.02a.87.87 0 0 1 .8-.63m4.35 2.12a1.28 1.28 0 0 1-.33.05c-.17 0-.3-.05-.38-.14-.09-.1-.13-.24-.13-.44v-.9h-.19v-.23h.19v-.48h.27v.48h.57v.24h-.57v.96l.05.14a.2.2 0 0 0 .09.09.5.5 0 0 0 .31 0 .97.97 0 0 0 .1-.03h.02zm2.72.01h-.27v-.95l-.01-.2a.45.45 0 0 0-.04-.17.23.23 0 0 0-.1-.1.4.4 0 0 0-.18-.03.5.5 0 0 0-.23.06l-.24.15.01.08V604.26h-.27v-.95l-.01-.21a.47.47 0 0 0-.04-.16.22.22 0 0 0-.1-.1.5.5 0 0 0-.4.02l-.23.15v1.25h-.28v-1.67h.28v.19c.08-.08.17-.13.26-.17a.62.62 0 0 1 .55 0c.08.05.14.12.18.2.1-.09.2-.16.3-.2a.7.7 0 0 1 .3-.07c.17 0 .3.06.4.17.08.11.12.27.12.47z"/></defs><g><g transform="translate(-346 -602)"><use fill="#5cbcf1" xlink:href="#r8h8a"/></g></g></svg>