<svg xmlns="http://www.w3.org/2000/svg" viewBox="0 0 494.031 494.031"><g fill="#ffac33"><path d="M494.03 325.077c.044 7.865-6.3 14.252-14.192 14.265l-71.112.185c-7.85.03-14.207-6.357-14.222-14.18-.043-7.893 6.315-14.25 14.15-14.278l71.112-.186c7.865 0 14.25 6.328 14.265 14.193M471.446 247.01c3.385 7.1.355 15.575-6.755 18.96l-64.226 30.506c-7.083 3.357-15.56.328-18.915-6.77-3.415-7.082-.37-15.558 6.726-18.958l64.228-30.493c7.11-3.355 15.57-.34 18.942 6.756M471.873 403.27c3.327-7.124.285-15.586-6.827-18.914l-64.398-30.18c-7.126-3.356-15.574-.3-18.916 6.813-3.327 7.124-.27 15.586 6.855 18.914l64.37 30.194c7.112 3.342 15.602.285 18.916-6.827"/></g><path d="M382.272 207.33c-20.195-5.958-38.3-22-44.6-32-10.81-17.18 2.218-21.63-2.19-69.53-4.04-43.85-64.413-91.01-137.815-95.802-33.35-2.177-68.053 4.636-103.608 24.078C2.752 84.01-33.443 189.554 37.084 291.484c63.574 91.875 3.925 133.39 3.925 133.39s2.36 19.342 41.444 45.34c39.097 25.998 87.054 8.362 87.054 8.362s15.815-56.235 67.527-51.057c37.078 5.46 89.116-1.82 102.273-14.565 12.316-11.904-2.148-26.823 7.666-60.075-33.635-3.285-52.11-19.328-53.888-41.928 37.334 3.627 52.72-8.22 63.39-21.262-.286-7.68-1.067-23.98-1.793-34.9 33.008-9.556 45.652-42.125 27.59-47.46" fill="#292f33"/></svg>