<svg xmlns="http://www.w3.org/2000/svg" width="80.13" height="80.13" viewBox="0 0 80.13 80.13"><path d="M48.355 17.922c3.705 2.323 6.303 6.254 6.776 10.817a11.69 11.69 0 0 0 4.967 1.11c6.49 0 11.752-5.26 11.752-11.75S66.587 6.348 60.096 6.348c-6.43.002-11.644 5.17-11.742 11.574zm-7.7 24.062c6.492 0 11.753-5.262 11.753-11.752s-5.262-11.75-11.752-11.75c-6.49 0-11.754 5.26-11.754 11.75s5.264 11.752 11.754 11.752zm4.986.8h-9.97c-8.298 0-15.048 6.752-15.048 15.05v12.194l.03.19.84.264c7.92 2.474 14.798 3.3 20.46 3.3 11.06 0 17.47-3.154 17.864-3.355l.785-.397h.085V57.833c.003-8.297-6.747-15.048-15.044-15.048zm19.444-12.13H55.19a14.483 14.483 0 0 1-4.47 10.087c7.374 2.194 12.77 9.033 12.77 17.11v3.76c9.77-.36 15.4-3.128 15.77-3.314l.786-.398h.084v-12.2c0-8.295-6.75-15.045-15.046-15.045zm-45.05-.8c2.3 0 4.44-.672 6.25-1.815a14.544 14.544 0 0 1 5.468-9.277c.012-.22.033-.438.033-.66 0-6.49-5.262-11.752-11.75-11.752-6.492 0-11.752 5.262-11.752 11.753 0 6.488 5.26 11.75 11.752 11.75zM30.59 40.74a14.492 14.492 0 0 1-4.468-10.03c-.367-.028-.73-.057-1.104-.057h-9.97C6.75 30.653 0 37.403 0 45.7v12.196l.03.188.84.265c6.353 1.982 12.022 2.896 16.946 3.184V57.85c.002-8.077 5.396-14.914 12.773-17.11z"/></svg>