<svg xmlns="http://www.w3.org/2000/svg" fill="#000" viewBox="0 0 538.681 538.681"><path d="M513.78 84.944c-.42 0-2.1-.84-2.52-.84h-6.72V29.435C504.54 13.876 490.26 0 474.72 0H27.42C11.46 0 .54 13.457.54 29.436v115.642c0 15.56 10.92 27.334 26.88 27.334h447.3c15.54 0 29.82-11.774 29.82-27.334v-44.154h5.88c5.46 4.205 10.92 7.99 10.92 13.457v67.284c0 7.15-7.14 11.354-14.28 11.354H272.28c-16.38 0-28.14 14.298-28.14 30.698v11.774h-54.6c-2.1 0-3.78 1.682-4.2 3.785-.42 1.682.84 4.205 2.94 5.046 4.62 2.524 18.06 11.355 18.06 18.924v251.048c0 13.877 10.08 24.39 23.94 24.39h42c13.86 0 26.46-10.513 26.46-24.39v-251.47c0-7.568 12.18-16.4 16.8-18.502 1.68-.84 2.1-3.364 1.68-5.046-.42-1.682-2.52-3.785-4.2-3.785h-52.08v-11.355c0-7.15 4.62-13.877 11.34-13.877h234.78c16.38 0 31.08-12.195 31.08-28.175V114.8c0-14.297-10.92-26.912-24.36-29.856zM27.42 16.82h447.3c6.3 0 13.02 5.888 13.02 12.616v23.55c-12.6-8.832-22.68-13.458-36.54-13.458-28.98 0-52.92 23.55-52.92 52.985 0 21.026-17.22 39.53-39.48 39.53s-39.06-18.504-39.06-40.79v-4.206c0-24.39-19.74-44.154-44.1-44.154s-44.1 19.764-44.1 44.154v4.205c0 10.513-8.4 18.923-18.9 18.923s-18.9-8.41-18.9-18.923v-6.728c0-16.4-13.02-29.436-29.4-29.436s-29.4 13.036-29.4 29.436v4.626c0 21.026-16.8 37.846-37.8 37.846s-37.8-16.82-37.8-37.846v-4.205c0-16.4-13.02-29.436-29.4-29.436-4.62 0-8.4 1.26-12.6 2.943V29.436c0-6.728 3.36-12.615 10.08-12.615z"/></svg>