<svg xmlns="http://www.w3.org/2000/svg" xmlns:xlink="http://www.w3.org/1999/xlink" width="48" height="55" viewBox="0 0 48 55"><defs><path id="6wdxa" d="M1214.7 2589.05c-.33.48-.86.75-1.47.75-.7 0-1.4-.38-1.76-.61l-.22-.17c-.04-.04-4.6-4.14-12.87-4.14-3.1 0-6.36.58-9.69 1.7-.11.04-.52.17-1.06.17a2.8 2.8 0 0 1-2.75-2l-4.06-11.99a2.8 2.8 0 0 1-.1-2.14c.21-.55.71-1.28 1.9-1.69.23-.06 13.42-3.81 16.34-15.47.39-1.16 1.07-2.4 2.32-2.4.5 0 1.4.21 1.88 1.62l4.06 12.01a6.73 6.73 0 0 1 3.5 10.33l4.05 12c.1.24.49 1.2-.08 2.03zm-3.65-3.8l-3.69-10.89-2.4-7.1-3.74-11.04c-4 11.29-16.2 15.11-17.61 15.52l4.08 12.07a32.97 32.97 0 0 1 10.69-1.89c6 0 10.27 1.9 12.67 3.33zm-25.39 14.54c4.34 4.4-1.09 5.34-1.09 5.34-1.76.6-2.08-1.26-2.08-1.26l-3.7-10.96c-.8-2.83-2.55-2.31-2.55-2.31-4.46 1.51-6.09-3.6-6.09-3.6l-2.05-6.07c-1.5-4.4 3-6.15 3-6.15l5.76-1.95c1.86-.63 2.14 1.13 2.14 1.13l4.65 14.03c.4 1.18-.4 3.73-.4 3.73 0 3.64 3.67 5.42 2.41 8.07zm15.93-35.58c-.8 6.26-9.01 8.57-9.36 8.67a1.17 1.17 0 0 1-.62-2.26c.07-.03 7.05-2 7.65-6.7.08-.65.68-1.1 1.3-1.02.65.08 1.1.66 1.03 1.3z"/></defs><g><g transform="translate(-1167 -2551)"><use xlink:href="#6wdxa"/></g></g></svg>