<svg xmlns="http://www.w3.org/2000/svg" xmlns:xlink="http://www.w3.org/1999/xlink" width="34" height="55" viewBox="0 0 34 55"><defs><path id="3zzza" d="M621.69 2556.34v45.57c0 2.4-1.97 4.34-4.4 4.34h-24.9a4.37 4.37 0 0 1-4.39-4.34v-45.57c0-2.4 1.97-4.34 4.4-4.34h24.9c2.42 0 4.39 1.94 4.39 4.34zm-14.47 45.93c0-1.3-1.07-2.35-2.38-2.35a2.37 2.37 0 0 0-2.38 2.35c0 1.3 1.07 2.35 2.38 2.35a2.37 2.37 0 0 0 2.38-2.35zm10.8-41.6c0-.39-.32-.72-.73-.72h-24.9c-.4 0-.73.33-.73.73v36.89c0 .4.33.72.74.72h24.9c.4 0 .72-.32.72-.72zm-14.64 29.85a.91.91 0 0 1-1.2.85l-1.5 1.91a.91.91 0 0 1-.77 1.4c-.51 0-.92-.41-.92-.9 0-.09 0-.16.03-.23l-1.86-1.23a.92.92 0 0 1-.9.12l-1.42 1.61c.07.13.12.28.12.44 0 .5-.41.9-.92.9-.5 0-.91-.4-.91-.9a.91.91 0 0 1 1.26-.83l1.42-1.62a.9.9 0 0 1-.12-.44c0-.5.41-.9.92-.9.5 0 .91.4.91.9a.9.9 0 0 1-.03.22l1.86 1.23a.89.89 0 0 1 .84-.13l1.5-1.91a.9.9 0 0 1-.14-.5c0-.5.41-.9.91-.9s.92.4.92.9zm-5.5-15.38h-3.29c0-2 1.64-3.61 3.66-3.61v3.25c0 .2-.16.36-.36.36zm.98 3.57c-2.03.33-3.81-1-4.2-2.84h3.6c.4 0 .73-.33.73-.73v-3.54a3.62 3.62 0 0 1 2.88 4.15 3.66 3.66 0 0 1-3 2.96zm-2.07-13.7h2.2v4.35h-2.2zm-2.93 2.18h2.2v2.17h-2.2zm5.86-5.07h2.2v7.24h-2.2zm5.12 5.07c0-.4.33-.73.73-.73h9.53c.4 0 .72.33.72.72v.01c0 .4-.32.72-.72.72h-9.53a.72.72 0 0 1-.73-.72zm-7.09 21.01v-.77c-1.1-.12-1.7-.79-1.7-.79l.6-.8s.65.62 1.5.62c.46 0 .87-.23.87-.72 0-1-2.86-.9-2.86-2.7 0-.86.65-1.53 1.6-1.68v-.79h.72v.77c.98.08 1.49.61 1.49.61l-.47.88s-.58-.52-1.33-.52c-.51 0-.9.3-.9.71 0 1 2.84.82 2.84 2.7 0 .85-.6 1.58-1.63 1.71v.77zm18.08-6.55v.01c0 .4-.33.72-.73.72h-9.52a.72.72 0 0 1-.73-.72v-.01c0-.4.33-.72.73-.72h9.52c.4 0 .73.32.73.72zm0-5.07v.02c0 .4-.33.71-.73.71h-9.52a.72.72 0 0 1-.73-.71v-.02c0-.4.33-.71.73-.71h9.52c.4 0 .73.32.73.71zm-10.99-13v-.02c0-.4.33-.71.73-.71h9.53c.4 0 .72.32.72.71v.02c0 .4-.32.71-.72.71h-9.53a.72.72 0 0 1-.73-.71zm10.99 30.37c0 .4-.33.73-.73.73h-9.52a.72.72 0 0 1-.73-.72v-.01c0-.4.33-.72.73-.72h9.52c.4 0 .73.32.73.72zm0-3.62v.01c0 .4-.33.72-.73.72h-9.52a.72.72 0 0 1-.73-.72v-.01c0-.4.33-.72.73-.72h9.52c.4 0 .73.32.73.72zm0-5.07v.02c0 .4-.33.71-.73.71h-9.52a.72.72 0 0 1-.73-.71v-.02c0-.4.33-.71.73-.71h9.52c.4 0 .73.32.73.71zm0-12.3v.02c0 .4-.33.72-.73.72h-9.52a.72.72 0 0 1-.73-.72v-.01c0-.4.33-.72.73-.72h9.52c.4 0 .73.32.73.72z"/></defs><g><g transform="translate(-588 -2552)"><use xlink:href="#3zzza"/></g></g></svg>