<svg xmlns="http://www.w3.org/2000/svg" xmlns:xlink="http://www.w3.org/1999/xlink" width="14" height="12" viewBox="0 0 14 12"><defs><path id="eev1a" d="M899.61 1273.98v8.08c0 .47-.38.85-.85.85h-11.9a.85.85 0 0 1-.86-.85v-8.08c0-.47.38-.85.85-.85h2.55v-1.28c0-.47.38-.85.85-.85h5.1c.48 0 .86.38.86.85v1.28h2.55c.47 0 .85.38.85.85zm-8.93-.85h4.25v-.85h-4.25zm7.66 5.1h-4.26v.43h-2.55v-.43h-4.25v3.4h11.06zm0-3.83h-11.06v2.55h4.25v-.42h2.55v.42h4.26z"/></defs><g><g transform="translate(-886 -1271)"><use fill="#5a5a5a" xlink:href="#eev1a"/></g></g></svg>