<svg xmlns="http://www.w3.org/2000/svg" xmlns:xlink="http://www.w3.org/1999/xlink" width="55" height="55" viewBox="0 0 55 55"><defs><path id="nvxla" d="M325 2604.81c0 .93-.75 1.69-1.69 1.69H299.7a1.69 1.69 0 1 1 0-3.38h3.37a3.38 3.38 0 0 0 3.38-3.37v-5.06h10.12v5.06a3.38 3.38 0 0 0 3.38 3.37h3.37c.94 0 1.69.76 1.69 1.7zm13.5-49.15v32.49c0 1.74-1.32 3.16-2.95 3.16h-48.1c-1.63 0-2.95-1.42-2.95-3.16v-32.49c0-1.74 1.32-3.16 2.95-3.16h48.1c1.63 0 2.95 1.42 2.95 3.16zm-3.38.21h-47.25v32.07h47.25z"/></defs><g><g transform="translate(-284 -2552)"><use fill="#222" xlink:href="#nvxla"/></g></g></svg>